<svg id="Layer_1" data-name="Layer 1" xmlns="http://www.w3.org/2000/svg" viewBox="0 0 240 120"><defs><style>.cls-1{fill:#6e2369;}.cls-2,.cls-3,.cls-33{fill:#fff;}.cls-3,.cls-33,.cls-35{fill-rule:evenodd;}.cls-11,.cls-13,.cls-15,.cls-17,.cls-19,.cls-21,.cls-23,.cls-25,.cls-27,.cls-29,.cls-32,.cls-4,.cls-6,.cls-9{fill:none;}.cls-10,.cls-12,.cls-14,.cls-16,.cls-18,.cls-20,.cls-22,.cls-24,.cls-26,.cls-28,.cls-35,.cls-5,.cls-8{fill:#010101;}.cls-11,.cls-13,.cls-15,.cls-17,.cls-19,.cls-21,.cls-23,.cls-25,.cls-27,.cls-29,.cls-6,.cls-9{stroke:#010101;stroke-miterlimit:2.61;}.cls-6{stroke-width:0.02px;}.cls-10,.cls-11,.cls-12,.cls-13,.cls-14,.cls-15,.cls-16,.cls-17,.cls-18,.cls-19,.cls-20,.cls-21,.cls-22,.cls-23,.cls-24,.cls-25,.cls-26,.cls-27,.cls-28,.cls-29,.cls-7,.cls-8,.cls-9{isolation:isolate;}.cls-18,.cls-19,.cls-24,.cls-25,.cls-8,.cls-9{font-size:2.22px;}.cls-10,.cls-11,.cls-12,.cls-13,.cls-14,.cls-15,.cls-16,.cls-17,.cls-18,.cls-19,.cls-20,.cls-21,.cls-22,.cls-23,.cls-24,.cls-25,.cls-26,.cls-27,.cls-28,.cls-29,.cls-8,.cls-9{font-family:Arial-BoldMT, Arial;font-weight:700;}.cls-11,.cls-13,.cls-15,.cls-17,.cls-19,.cls-21,.cls-23,.cls-25,.cls-27,.cls-29,.cls-9{stroke-width:0.02px;}.cls-10,.cls-11,.cls-16,.cls-17,.cls-26,.cls-27,.cls-28,.cls-29{font-size:2.22px;}.cls-12,.cls-13,.cls-14,.cls-15{font-size:2.22px;}.cls-12,.cls-13{letter-spacing:-0.02em;}.cls-16,.cls-17{letter-spacing:-0.04em;}.cls-18,.cls-19{letter-spacing:-0.04em;}.cls-20,.cls-21,.cls-22,.cls-23{font-size:2.22px;}.cls-22,.cls-23{letter-spacing:-0.02em;}.cls-24,.cls-25{letter-spacing:-0.04em;}.cls-26,.cls-27{letter-spacing:-0.04em;}.cls-28,.cls-29{letter-spacing:-0.02em;}.cls-30{fill:#222160;}.cls-31{fill:#099146;}.cls-32,.cls-35{stroke:#fff;}.cls-32,.cls-33,.cls-35{stroke-miterlimit:22.93;}.cls-32,.cls-33{stroke-width:0.23px;}.cls-33{stroke:#1a1a1a;}.cls-34{fill:#1a1a1a;}.cls-35{stroke-width:0.05px;}.cls-36{font-size:13.27px;fill:#231f20;font-family:EBGaramond-SemiBold, EB Garamond;font-weight:600;}.cls-37{letter-spacing:0.04em;}.cls-38{letter-spacing:0.03em;}.cls-39{letter-spacing:-0.01em;}.cls-40{letter-spacing:-0.07em;}.cls-41{letter-spacing:0.04em;}.cls-42{letter-spacing:-0.01em;}.cls-43{letter-spacing:-0.04em;}.cls-44{letter-spacing:-0.08em;}</style></defs><g id="Layer_1-2" data-name="Layer_1"><circle class="cls-1" cx="43.73" cy="56.91" r="18.92"/><circle class="cls-2" cx="43.73" cy="56.91" r="18.51"/><path class="cls-3" d="M43.73,38.5A18.42,18.42,0,1,1,25.32,56.91,18.42,18.42,0,0,1,43.73,38.5Zm0,2.69A15.73,15.73,0,1,1,28,56.91,15.72,15.72,0,0,1,43.73,41.19Z"/><circle class="cls-4" cx="43.73" cy="56.91" r="16.18"/><path class="cls-5" d="M28.11,61.25l.18.51a1,1,0,0,1,.06.23.38.38,0,0,1,0,.15.42.42,0,0,1-.09.14.48.48,0,0,1-.17.1.38.38,0,0,1-.21,0,.34.34,0,0,1-.17-.08.35.35,0,0,1-.08.22.48.48,0,0,1-.2.14.41.41,0,0,1-.22,0,.41.41,0,0,1-.19-.05.47.47,0,0,1-.13-.15s-.06-.14-.12-.31l-.15-.43,1.5-.52Zm-.16.34-.34.12.05.17.07.18a.25.25,0,0,0,.09.09H28a.23.23,0,0,0,.11-.08.14.14,0,0,0,0-.11.78.78,0,0,0-.07-.22L28,61.59Zm-.59.21-.41.14.09.24a.6.6,0,0,0,.07.17.13.13,0,0,0,.09.07.23.23,0,0,0,.14,0,.2.2,0,0,0,.11-.06.36.36,0,0,0,0-.11.85.85,0,0,0-.06-.23l-.07-.21Zm.34,2.78-.12-.27.28-.25-.22-.5-.38,0-.12-.26,1.67-.18.11.26L27.7,64.58Zm.37-.72.46-.41-.61.08.15.33Zm0,1.39,1.18-.59L29,64.3l.24-.12.48.95-.24.12-.18-.35-1.18.59L28,65.25Zm1.22,2L29.1,67l.25-.29-.29-.45-.37.1-.15-.25,1.62-.41.15.24-1,1.31Zm.27-.76.39-.47-.59.16.2.31Zm.11,1.22,1.25-1,.16.2L30.55,68l.84-.65.15.19-1.24,1-.17-.22.48-1.07-.82.65-.15-.2Zm2,1.4.19-.2.42.4-.44.46a.66.66,0,0,1-.3,0,.79.79,0,0,1-.29-.18.6.6,0,0,1-.15-.7,1.17,1.17,0,0,1,.24-.37,1.07,1.07,0,0,1,.36-.25.62.62,0,0,1,.4,0,.67.67,0,0,1,.28.16.6.6,0,0,1,.2.36.62.62,0,0,1-.11.38L32.2,69a.39.39,0,0,0,.06-.2.32.32,0,0,0-.1-.19.35.35,0,0,0-.29-.1.62.62,0,0,0-.35.22.69.69,0,0,0-.22.38.31.31,0,0,0,.1.29.38.38,0,0,0,.15.09l.17,0,.14-.14-.22-.21Zm.53,1.3,1-1.26.22.17-.39.49.42.33.39-.5.21.17-1,1.26-.21-.17.43-.55-.42-.32-.43.54-.21-.16Zm2.44,1.75L34.37,72l.1-.37L34,71.36l-.29.24-.25-.15,1.31-1.06.24.16Zm-.07-.8.16-.6-.47.4.31.2Zm.59,1.1.72-1.42.5.26a.64.64,0,0,1,.26.18.27.27,0,0,1,.07.2.39.39,0,0,1-.06.25.47.47,0,0,1-.21.23.44.44,0,0,1-.3,0,.67.67,0,0,1,.07.18,1.9,1.9,0,0,1,0,.3V73l-.29-.15v-.39c0-.14,0-.24,0-.28a.19.19,0,0,0-.05-.09.35.35,0,0,0-.11-.08l0,0-.3.59-.24-.12Zm.65-.7.18.09a.7.7,0,0,0,.23.09.12.12,0,0,0,.1,0,.29.29,0,0,0,.08-.1.2.2,0,0,0,0-.13.15.15,0,0,0-.06-.1l-.17-.09-.19-.1-.19.36Zm1,1.47.59-1.47.25.1L37,73.36Zm3.55.66.05-.29.5.09-.05.3Zm3.71.77,0-1.58h.27l0,1.31.67,0v.27l-.94,0Zm2.78-.24-.29,0-.16-.34-.54.07-.06.37-.29,0L45.77,73l.28,0,.73,1.51Zm-.57-.57L46,73.31l-.11.61Zm1.14.44L47,72.76l.39-.09.48,1V72.56l.4-.09L48.61,74l-.24.06-.28-1.22,0,1.28-.25.06L47.32,73l.28,1.21-.25.06Zm1.95-.52-.53-1.5.41-.15a1.41,1.41,0,0,1,.32-.08.43.43,0,0,1,.23.08.6.6,0,0,1,.17.27.47.47,0,0,1,0,.25.35.35,0,0,1,0,.18.43.43,0,0,1-.11.12,1.66,1.66,0,0,1-.26.12l-.16,0,.19.57-.25.09Zm-.18-1.34.15.43.14,0a.67.67,0,0,0,.19-.09.14.14,0,0,0,0-.1.19.19,0,0,0,0-.13.19.19,0,0,0-.09-.12.14.14,0,0,0-.12,0l-.19,0-.12,0Zm1.1-.72.25-.11.36.78a.83.83,0,0,0,.12.24.22.22,0,0,0,.14.11.24.24,0,0,0,.18,0,.22.22,0,0,0,.13-.12.2.2,0,0,0,0-.15,1.27,1.27,0,0,0-.1-.25L51,71.4l.25-.11.34.76a2.79,2.79,0,0,1,.15.38.55.55,0,0,1,0,.22.76.76,0,0,1-.09.18.53.53,0,0,1-.22.15.57.57,0,0,1-.28.07.32.32,0,0,1-.2-.06.47.47,0,0,1-.15-.13,3.09,3.09,0,0,1-.19-.35l-.35-.78Zm2.28.67-.85-1.34.22-.15,1,.61-.58-.9.22-.14.85,1.34-.23.15-1-.59.56.88-.21.14Zm1.65-1.82L54,70.37l.46-.36.39.5a.67.67,0,0,1-.08.28.84.84,0,0,1-.22.27.67.67,0,0,1-.35.14.64.64,0,0,1-.37-.09,1.1,1.1,0,0,1-.32-.29,1,1,0,0,1-.21-.4.73.73,0,0,1,0-.39.68.68,0,0,1,.2-.26.59.59,0,0,1,.39-.14.57.57,0,0,1,.35.15l-.17.22a.32.32,0,0,0-.2-.08.32.32,0,0,0-.2.07.33.33,0,0,0-.13.28.61.61,0,0,0,.16.37.69.69,0,0,0,.35.27.33.33,0,0,0,.3-.06.38.38,0,0,0,.11-.14.52.52,0,0,0,.06-.16l-.13-.16-.24.19Zm3.42-2.52-1-.81-.25.31-.21-.16.65-.84.22.16-.25.32,1.05.81Zm.76-1L57,66.11l.16-.22,1.29.92Zm.55-.8-1.38-.8.2-.35,1.06.33-.82-.75.21-.35,1.37.8-.12.21-1.09-.62.95.85-.13.23-1.21-.4L59,66l-.12.22Zm-.51-2.43.12-.25.78.36.25.1a.25.25,0,0,0,.17,0,.21.21,0,0,0,.13-.13.24.24,0,0,0,0-.18.23.23,0,0,0-.1-.12l-.24-.12-.8-.36.11-.25.76.34a1.79,1.79,0,0,1,.36.19.36.36,0,0,1,.15.15.43.43,0,0,1,.06.2.65.65,0,0,1-.06.25.77.77,0,0,1-.17.25.46.46,0,0,1-.19.08h-.19a2.35,2.35,0,0,1-.38-.14l-.78-.35Zm2.14-1L59,62.28l.18-.54a.79.79,0,0,1,.14-.28.27.27,0,0,1,.19-.1.46.46,0,0,1,.26,0,.48.48,0,0,1,.25.18.38.38,0,0,1,.06.3.42.42,0,0,1,.17-.1l.29-.06.35-.06-.1.31L60.4,62l-.27.06-.09.06a.44.44,0,0,0-.06.12l0,.06.63.21-.08.26Zm-.79-.55.07-.19a.63.63,0,0,0,.05-.24.12.12,0,0,0,0-.09.3.3,0,0,0-.11-.07.2.2,0,0,0-.13,0,.25.25,0,0,0-.1.08,1.45,1.45,0,0,0-.06.19l-.07.2.38.13Z"/><path id="_1" data-name="1" class="cls-6" d="M28.11,61.25l.18.51a1,1,0,0,1,.06.23.38.38,0,0,1,0,.15.42.42,0,0,1-.09.14.48.48,0,0,1-.17.1.38.38,0,0,1-.21,0,.34.34,0,0,1-.17-.08.35.35,0,0,1-.08.22.48.48,0,0,1-.2.14.41.41,0,0,1-.22,0,.41.41,0,0,1-.19-.05.47.47,0,0,1-.13-.15s-.06-.14-.12-.31l-.15-.43,1.5-.52Zm-.16.34-.34.12.05.17.07.18a.25.25,0,0,0,.09.09H28a.23.23,0,0,0,.11-.08.14.14,0,0,0,0-.11.78.78,0,0,0-.07-.22L28,61.59Zm-.59.21-.41.14.09.24a.6.6,0,0,0,.07.17.13.13,0,0,0,.09.07.23.23,0,0,0,.14,0,.2.2,0,0,0,.11-.06.36.36,0,0,0,0-.11.85.85,0,0,0-.06-.23l-.07-.21Zm.34,2.78-.12-.27.28-.25-.22-.5-.38,0-.12-.26,1.67-.18.11.26L27.7,64.58Zm.37-.72.46-.41-.61.08.15.33Zm0,1.39,1.18-.59L29,64.3l.24-.12.48.95-.24.12-.18-.35-1.18.59L28,65.25Zm1.22,2L29.1,67l.25-.29-.29-.45-.37.1-.15-.25,1.62-.41.15.24-1,1.31Zm.27-.76.39-.47-.59.16.2.31Zm.11,1.22,1.25-1,.16.2L30.55,68l.84-.65.15.19-1.24,1-.17-.22.48-1.07-.82.65-.15-.2Zm2,1.4.19-.2.42.4-.44.46a.66.66,0,0,1-.3,0,.79.79,0,0,1-.29-.18.6.6,0,0,1-.15-.7,1.17,1.17,0,0,1,.24-.37,1.07,1.07,0,0,1,.36-.25.62.62,0,0,1,.4,0,.67.67,0,0,1,.28.16.6.6,0,0,1,.2.36.62.62,0,0,1-.11.38L32.2,69a.39.39,0,0,0,.06-.2.32.32,0,0,0-.1-.19.35.35,0,0,0-.29-.1.62.62,0,0,0-.35.22.69.69,0,0,0-.22.38.31.31,0,0,0,.1.29.38.38,0,0,0,.15.09l.17,0,.14-.14-.22-.21Zm.53,1.3,1-1.26.22.17-.39.49.42.33.39-.5.21.17-1,1.26-.21-.17.43-.55-.42-.32-.43.54-.21-.16Zm2.44,1.75L34.37,72l.1-.37L34,71.36l-.29.24-.25-.15,1.31-1.06.24.16Zm-.07-.8.16-.6-.47.4.31.2Zm.59,1.1.72-1.42.5.26a.64.64,0,0,1,.26.18.27.27,0,0,1,.07.2.39.39,0,0,1-.06.25.47.47,0,0,1-.21.23.44.44,0,0,1-.3,0,.67.67,0,0,1,.07.18,1.9,1.9,0,0,1,0,.3V73l-.29-.15v-.39c0-.14,0-.24,0-.28a.19.19,0,0,0-.05-.09.35.35,0,0,0-.11-.08l0,0-.3.59-.24-.12Zm.65-.7.18.09a.7.7,0,0,0,.23.09.12.12,0,0,0,.1,0,.29.29,0,0,0,.08-.1.2.2,0,0,0,0-.13.15.15,0,0,0-.06-.1l-.17-.09-.19-.1-.19.36Zm1,1.47.59-1.47.25.1L37,73.36Zm3.55.66.05-.29.5.09-.05.3Zm3.71.77,0-1.58h.27l0,1.31.67,0v.27l-.94,0Zm2.78-.24-.29,0-.16-.34-.54.07-.06.37-.29,0L45.77,73l.28,0,.73,1.51Zm-.57-.57L46,73.31l-.11.61Zm1.14.44L47,72.76l.39-.09.48,1V72.56l.4-.09L48.61,74l-.24.06-.28-1.22,0,1.28-.25.06L47.32,73l.28,1.21-.25.06Zm1.95-.52-.53-1.5.41-.15a1.41,1.41,0,0,1,.32-.08.43.43,0,0,1,.23.08.6.6,0,0,1,.17.27.47.47,0,0,1,0,.25.35.35,0,0,1,0,.18.43.43,0,0,1-.11.12,1.66,1.66,0,0,1-.26.12l-.16,0,.19.57-.25.09Zm-.18-1.34.15.43.14,0a.67.67,0,0,0,.19-.09.14.14,0,0,0,0-.1.19.19,0,0,0,0-.13.19.19,0,0,0-.09-.12.14.14,0,0,0-.12,0l-.19,0-.12,0Zm1.1-.72.25-.11.36.78a.83.83,0,0,0,.12.24.22.22,0,0,0,.14.11.24.24,0,0,0,.18,0,.22.22,0,0,0,.13-.12.2.2,0,0,0,0-.15,1.27,1.27,0,0,0-.1-.25L51,71.4l.25-.11.34.76a2.79,2.79,0,0,1,.15.38.55.55,0,0,1,0,.22.76.76,0,0,1-.09.18.53.53,0,0,1-.22.15.57.57,0,0,1-.28.07.32.32,0,0,1-.2-.06.47.47,0,0,1-.15-.13,3.09,3.09,0,0,1-.19-.35l-.35-.78Zm2.28.67-.85-1.34.22-.15,1,.61-.58-.9.22-.14.85,1.34-.23.15-1-.59.56.88-.21.14Zm1.65-1.82L54,70.37l.46-.36.39.5a.67.67,0,0,1-.08.28.84.84,0,0,1-.22.27.67.67,0,0,1-.35.14.64.64,0,0,1-.37-.09,1.1,1.1,0,0,1-.32-.29,1,1,0,0,1-.21-.4.73.73,0,0,1,0-.39.68.68,0,0,1,.2-.26.59.59,0,0,1,.39-.14.57.57,0,0,1,.35.15l-.17.22a.32.32,0,0,0-.2-.08.32.32,0,0,0-.2.07.33.33,0,0,0-.13.28.61.61,0,0,0,.16.37.69.69,0,0,0,.35.27.33.33,0,0,0,.3-.06.38.38,0,0,0,.11-.14.52.52,0,0,0,.06-.16l-.13-.16-.24.19Zm3.42-2.52-1-.81-.25.31-.21-.16.65-.84.22.16-.25.32,1.05.81Zm.76-1L57,66.11l.16-.22,1.29.92Zm.55-.8-1.38-.8.2-.35,1.06.33-.82-.75.21-.35,1.37.8-.12.21-1.09-.62.95.85-.13.23-1.21-.4L59,66l-.12.22Zm-.51-2.43.12-.25.78.36.25.1a.25.25,0,0,0,.17,0,.21.21,0,0,0,.13-.13.24.24,0,0,0,0-.18.23.23,0,0,0-.1-.12l-.24-.12-.8-.36.11-.25.76.34a1.79,1.79,0,0,1,.36.19.36.36,0,0,1,.15.15.43.43,0,0,1,.06.2.65.65,0,0,1-.06.25.77.77,0,0,1-.17.25.46.46,0,0,1-.19.08h-.19a2.35,2.35,0,0,1-.38-.14l-.78-.35Zm2.14-1L59,62.28l.18-.54a.79.79,0,0,1,.14-.28.27.27,0,0,1,.19-.1.46.46,0,0,1,.26,0,.48.48,0,0,1,.25.18.38.38,0,0,1,.06.3.42.42,0,0,1,.17-.1l.29-.06.35-.06-.1.31L60.4,62l-.27.06-.09.06a.44.44,0,0,0-.06.12l0,.06.63.21-.08.26Zm-.79-.55.07-.19a.63.63,0,0,0,.05-.24.12.12,0,0,0,0-.09.3.3,0,0,0-.11-.07.2.2,0,0,0-.13,0,.25.25,0,0,0-.1.08,1.45,1.45,0,0,0-.06.19l-.07.2.38.13Z"/><circle class="cls-4" cx="43.73" cy="56.91" r="16.18"/><g class="cls-7"><text class="cls-8" transform="translate(27.64 55) rotate(-80)">S</text><text class="cls-9" transform="translate(27.64 55) rotate(-80)">S</text></g><g class="cls-7"><text class="cls-10" transform="translate(27.93 53.35) rotate(-74)">M</text><text class="cls-11" transform="translate(27.93 53.35) rotate(-74)">M</text></g><g class="cls-7"><text class="cls-12" transform="translate(28.52 51.41) rotate(-68)">P</text><text class="cls-13" transform="translate(28.52 51.41) rotate(-68)">P</text></g><g class="cls-7"><text class="cls-14" transform="matrix(0.45, -0.89, 0.89, 0.45, 29.06, 50.07)"> </text><text class="cls-15" transform="matrix(0.45, -0.89, 0.89, 0.45, 29.06, 50.07)"> </text></g><g class="cls-7"><text class="cls-14" transform="matrix(0.45, -0.89, 0.89, 0.45, 29.34, 49.52)"> </text><text class="cls-15" transform="matrix(0.45, -0.89, 0.89, 0.45, 29.34, 49.52)"> </text></g><g class="cls-7"><text class="cls-14" transform="translate(29.64 48.98) rotate(-60)"> </text><text class="cls-15" transform="translate(29.64 48.98) rotate(-60)"> </text></g><g class="cls-7"><text class="cls-10" transform="matrix(0.54, -0.84, 0.84, 0.54, 29.94, 48.45)"> </text><text class="cls-11" transform="matrix(0.54, -0.84, 0.84, 0.54, 29.94, 48.45)"> </text></g><g class="cls-7"><text class="cls-10" transform="translate(30.28 47.93) rotate(-55)"> </text><text class="cls-11" transform="translate(30.28 47.93) rotate(-55)"> </text></g><g class="cls-7"><text class="cls-14" transform="matrix(0.62, -0.79, 0.79, 0.62, 30.64, 47.39)">M</text><text class="cls-15" transform="matrix(0.62, -0.79, 0.79, 0.62, 30.64, 47.39)">M</text></g><g class="cls-7"><text class="cls-14" transform="matrix(0.72, -0.69, 0.69, 0.72, 31.93, 45.82)">U</text><text class="cls-15" transform="matrix(0.72, -0.69, 0.69, 0.72, 31.93, 45.82)">U</text></g><g class="cls-7"><text class="cls-14" transform="matrix(0.79, -0.62, 0.62, 0.79, 33.24, 44.59)">H</text><text class="cls-15" transform="matrix(0.79, -0.62, 0.62, 0.79, 33.24, 44.59)">H</text></g><g class="cls-7"><text class="cls-16" transform="matrix(0.84, -0.54, 0.54, 0.84, 34.66, 43.51)">A</text><text class="cls-17" transform="matrix(0.84, -0.54, 0.54, 0.84, 34.66, 43.51)">A</text></g><g class="cls-7"><text class="cls-10" transform="matrix(0.91, -0.41, 0.41, 0.91, 36.18, 42.57)">M</text><text class="cls-11" transform="matrix(0.91, -0.41, 0.41, 0.91, 36.18, 42.57)">M</text></g><g class="cls-7"><text class="cls-10" transform="translate(38.03 41.72) rotate(-16)">M</text><text class="cls-11" transform="translate(38.03 41.72) rotate(-16)">M</text></g><g class="cls-7"><text class="cls-18" transform="translate(39.99 41.15) rotate(-10)">A</text><text class="cls-19" transform="translate(39.99 41.15) rotate(-10)">A</text></g><g class="cls-7"><text class="cls-20" transform="translate(41.76 40.85) rotate(-4)">D</text><text class="cls-21" transform="translate(41.76 40.85) rotate(-4)">D</text></g><g class="cls-7"><text class="cls-14" transform="matrix(1, 0.02, -0.02, 1, 43.54, 40.73)">I</text><text class="cls-15" transform="matrix(1, 0.02, -0.02, 1, 43.54, 40.73)">I</text></g><g class="cls-7"><text class="cls-22" transform="translate(44.34 40.74) rotate(4)">Y</text><text class="cls-23" transform="translate(44.34 40.74) rotate(4)">Y</text></g><g class="cls-7"><text class="cls-24" transform="translate(45.8 40.85) rotate(10)">A</text><text class="cls-25" transform="translate(45.8 40.85) rotate(10)">A</text></g><g class="cls-7"><text class="cls-10" transform="translate(47.56 41.18) rotate(16)">H</text><text class="cls-11" transform="translate(47.56 41.18) rotate(16)">H</text></g><g class="cls-7"><text class="cls-14" transform="translate(49.09 41.64) rotate(22)"> </text><text class="cls-15" transform="translate(49.09 41.64) rotate(22)"> </text></g><g class="cls-7"><text class="cls-14" transform="translate(49.67 41.87) rotate(22)"> </text><text class="cls-15" transform="translate(49.67 41.87) rotate(22)"> </text></g><g class="cls-7"><text class="cls-10" transform="matrix(0.91, 0.41, -0.41, 0.91, 50.24, 42.1)"> </text><text class="cls-11" transform="matrix(0.91, 0.41, -0.41, 0.91, 50.24, 42.1)"> </text></g><g class="cls-7"><text class="cls-14" transform="matrix(0.89, 0.45, -0.45, 0.89, 50.8, 42.36)"> </text><text class="cls-15" transform="matrix(0.89, 0.45, -0.45, 0.89, 50.8, 42.36)"> </text></g><g class="cls-7"><text class="cls-14" transform="translate(51.35 42.63) rotate(30)"> </text><text class="cls-15" transform="translate(51.35 42.63) rotate(30)"> </text></g><g class="cls-7"><text class="cls-14" transform="translate(51.88 42.94) rotate(30)"> </text><text class="cls-15" transform="translate(51.88 42.94) rotate(30)"> </text></g><g class="cls-7"><text class="cls-26" transform="translate(52.38 43.22) rotate(35)">A</text><text class="cls-27" transform="translate(52.38 43.22) rotate(35)">A</text></g><g class="cls-7"><text class="cls-28" transform="matrix(0.75, 0.66, -0.66, 0.75, 53.83, 44.26)">L</text><text class="cls-29" transform="matrix(0.75, 0.66, -0.66, 0.75, 53.83, 44.26)">L</text></g><g class="cls-7"><text class="cls-14" transform="matrix(0.69, 0.72, -0.72, 0.69, 54.99, 45.28)">-</text><text class="cls-15" transform="matrix(0.69, 0.72, -0.72, 0.69, 54.99, 45.28)">-</text></g><g class="cls-7"><text class="cls-10" transform="matrix(0.66, 0.75, -0.75, 0.66, 55.63, 45.95)">G</text><text class="cls-11" transform="matrix(0.66, 0.75, -0.75, 0.66, 55.63, 45.95)">G</text></g><g class="cls-7"><text class="cls-10" transform="matrix(0.54, 0.84, -0.84, 0.54, 56.86, 47.41)">H</text><text class="cls-11" transform="matrix(0.54, 0.84, -0.84, 0.54, 56.86, 47.41)">H</text></g><g class="cls-7"><text class="cls-14" transform="translate(57.8 48.93) rotate(60)">I</text><text class="cls-15" transform="translate(57.8 48.93) rotate(60)">I</text></g><g class="cls-7"><text class="cls-10" transform="matrix(0.41, 0.91, -0.91, 0.41, 58.19, 49.63)">F</text><text class="cls-11" transform="matrix(0.41, 0.91, -0.91, 0.41, 58.19, 49.63)">F</text></g><g class="cls-7"><text class="cls-26" transform="matrix(0.33, 0.95, -0.95, 0.33, 58.78, 50.92)">A</text><text class="cls-27" transform="matrix(0.33, 0.95, -0.95, 0.33, 58.78, 50.92)">A</text></g><g class="cls-7"><text class="cls-10" transform="translate(59.34 52.62) rotate(77)">R</text><text class="cls-11" transform="translate(59.34 52.62) rotate(77)">R</text></g><g class="cls-7"><text class="cls-10" transform="translate(59.71 54.37) rotate(83)">I</text><text class="cls-11" transform="translate(59.71 54.37) rotate(83)">I</text></g><circle class="cls-30" cx="43.73" cy="56.91" r="15.78"/><rect class="cls-2" x="33.96" y="47.15" width="19.53" height="19.53"/><rect class="cls-2" x="33.96" y="47.15" width="19.53" height="19.53" transform="translate(-27.44 47.59) rotate(-45)"/><rect class="cls-31" x="34.9" y="48.09" width="17.65" height="17.65"/><rect class="cls-31" x="34.9" y="48.09" width="17.65" height="17.65" transform="translate(-27.44 47.59) rotate(-45)"/><rect class="cls-1" x="34.49" y="47.68" width="18.48" height="18.48"/><rect class="cls-1" x="34.49" y="47.68" width="18.48" height="18.48" transform="translate(-27.44 47.59) rotate(-45)"/><path class="cls-32" d="M43.73,47.79a9.12,9.12,0,1,1-9.12,9.11,9.11,9.11,0,0,1,9.12-9.11Zm0,2.68a6.44,6.44,0,1,1-6.44,6.43,6.43,6.43,0,0,1,6.44-6.43Z"/><path class="cls-33" d="M43.73,47.79a9.11,9.11,0,0,1,9.11,9.11H50.16a6.44,6.44,0,0,0-12.87,0H34.61a9.11,9.11,0,0,1,9.12-9.11Z"/><circle class="cls-4" cx="43.73" cy="56.91" r="6.43"/><path class="cls-34" d="M36.72,54.76l0,.16s-.07.09-.16.11h-.28a.23.23,0,0,1,.07.1.17.17,0,0,1,0,.12,1.67,1.67,0,0,1-.06.2c0,.06,0,.08-.07.08a.35.35,0,0,1-.18-.17,1.51,1.51,0,0,1-.13-.36h-.09a.18.18,0,0,1-.08,0l-.07-.07h.72c.08,0,.13,0,.13-.05l0-.16.19,0Zm-.58.27H36a.61.61,0,0,0,0,.17.28.28,0,0,0,.08.11.08.08,0,0,0,0,0,.34.34,0,0,0,0-.08.16.16,0,0,0,0-.14Zm-.81-.29.14.11-.13.16-.14-.12.13-.15Zm.05.27.14.12-.14.16-.14-.12.14-.16Zm1.55-.81-.21.61-.19-.07.18-.53a.58.58,0,0,0-.2,0l-.17.06-.14-.14a.62.62,0,0,1,.18-.05.8.8,0,0,1,.28.07l.27.09Zm.2.08.13.13-.15.14L37,54.42l.15-.14Zm0,.27.12.14-.15.14L37,54.7l.15-.15Zm.17-1.22,0,.11a.61.61,0,0,1-.1.14.68.68,0,0,1-.18.13.45.45,0,0,1,0,.17.49.49,0,0,1-.06.2l-.07.16-.18-.08L36.8,54a.32.32,0,0,0,0-.19.47.47,0,0,0-.06-.15.79.79,0,0,1-.09-.23.54.54,0,0,1,0-.18l.24,0a.61.61,0,0,1,.22,0l.18.08Zm-.26,0h-.14l-.12,0a.17.17,0,0,0,0,.1l.05.09.12-.07a.47.47,0,0,0,.1-.11v0Zm.34-1.19,0,0,0,0a1.3,1.3,0,0,0-.35,0,.39.39,0,0,0-.26.08.11.11,0,0,0,0,.05,0,0,0,0,1,0,0l-.09,0a.38.38,0,0,1-.36,0s0-.06,0-.08a.5.5,0,0,1,.23-.15,1.27,1.27,0,0,1,.4-.11.61.61,0,0,1,.4.08Zm.75,0,0,0a.17.17,0,0,1-.17.07.87.87,0,0,1-.35-.16l0,0,0,0a1.89,1.89,0,0,1,.22.4.54.54,0,0,1,0,.33,2.81,2.81,0,0,1-.28.45l0,0c.07-.2.11-.35.14-.46a1.1,1.1,0,0,0,0-.44.56.56,0,0,0-.24-.35l-.17-.11L37,51.77l-.05-.09,0-.08.31.15.25.14.26.14a.63.63,0,0,0,.21.07l.06,0L38,52l.16.12Zm.93-.9-.06,0a.38.38,0,0,1-.11.08l-.1,0a.81.81,0,0,1,0,.11l-.1.12-.06.05a.26.26,0,0,1-.1.07l-.1,0,0,.11-.1.11-.16.15L38,52l.16-.15a.48.48,0,0,0,.08-.11.11.11,0,0,0,0-.12l0,0-.06,0,0-.08.15.08.14,0a.21.21,0,0,0,.13-.05l.05,0a.2.2,0,0,0,.07-.11.1.1,0,0,0,0-.1l-.05,0s0,0-.06-.05v-.08l.09.06a.34.34,0,0,0,.18.08.14.14,0,0,0,.1,0,.07.07,0,0,0,0-.1.23.23,0,0,0-.12-.06l-.09,0,0-.14.13,0a.57.57,0,0,1,.16.13l.19.2Zm.38-1.7.06.2h-.07l.06.08a1.59,1.59,0,0,1,.12.27,1.14,1.14,0,0,1,.06.33l.12.07a.52.52,0,0,1,.1.11l0,.06,0,.06a1.66,1.66,0,0,1-.19.18l-.21.16,0,0-.07-.14a1,1,0,0,0,.13-.4l-.21-.12-.23-.1-.09,0H39l0,0,0,0a.16.16,0,0,1-.1,0l-.14,0-.09,0-.06-.07,0-.09s0-.07,0-.08h.16l.26.08.27.12.2.09.19.11a1.07,1.07,0,0,0-.08-.32,2,2,0,0,0-.17-.3h-.07a.75.75,0,0,1-.07-.12.52.52,0,0,1,0-.11h0a.09.09,0,0,0,.09,0h.15Zm.35,1.08,0,0-.08,0,0,.14-.06.16.15-.11S39.82,50.64,39.81,50.62Zm.14.54a0,0,0,0,1,0,.06s0,0,0,.07l-.14.17s0-.07.05-.13h-.06l0,0a.23.23,0,0,1,0-.12.17.17,0,0,1,.06-.12h0s0,0,0,0,0,0,0,0v0a.11.11,0,0,0-.08,0s0,0,0,0,0,0,0,0,0,0,.07,0l.09,0,0,0s0,0,0,0Zm.47-1.1a.34.34,0,0,1,0,.17.42.42,0,0,1,0,.16h0l0-.07,0,0c0-.07-.09-.17-.17-.29s-.15-.24-.24-.37l-.16-.24v-.24c.05.07.12.17.2.3a2.77,2.77,0,0,1,.22.34,2.06,2.06,0,0,1,.17.29Zm3.12-.47h-.16c-.06,0-.11,0-.16-.12a2.12,2.12,0,0,1-.09-.27.31.31,0,0,1-.08.11.21.21,0,0,1-.11,0h-.21c-.06,0-.09,0-.09,0a.29.29,0,0,1,.11-.22.91.91,0,0,1,.3-.23l0,0a.11.11,0,0,1,0,0,.31.31,0,0,1,0-.08.41.41,0,0,1,.05-.09.74.74,0,0,0,0,.14l0,.13.05.19a2.35,2.35,0,0,0,.07.23c0,.08.06.12.08.12l.16,0,0,.2Zm-.43-.47,0-.12a.37.37,0,0,0-.14.08.24.24,0,0,0-.09.11H43a.2.2,0,0,0,.13-.08Zm0-.86-.07.17-.2-.08.08-.17.19.08Zm-.25.12-.07.17-.19-.08.07-.17Zm1.24,1.23-.65,0v-.2l.56,0a.44.44,0,0,0,0-.21.79.79,0,0,0-.11-.14l.1-.18.1.16a1.85,1.85,0,0,1,0,.29v.28Zm0,.22L44,50l-.18-.1.09-.16Zm-.26.09-.09.16-.18-.1.09-.16ZM45,49.69l-.51-.06a.22.22,0,0,1-.11-.05.13.13,0,0,1,0-.1s0,0,0-.07a.24.24,0,0,1,0-.08h0a.09.09,0,0,0,0,.07l.08,0,.43.06a.68.68,0,0,0,0-.33.37.37,0,0,0-.2-.24l0-.21a.57.57,0,0,1,.24.34,1.29,1.29,0,0,1,0,.45l0,.19Zm.92.21-.11,0a.37.37,0,0,1-.16-.07.61.61,0,0,1-.17-.15.37.37,0,0,1-.15.08.72.72,0,0,1-.2,0l-.17,0,0-.2.17,0a.35.35,0,0,0,.32-.09.57.57,0,0,1,.21-.13.49.49,0,0,1,.18,0,1.53,1.53,0,0,1,.07.24.6.6,0,0,1,0,.22Zm-.08-.25a.29.29,0,0,0,0-.13.93.93,0,0,0,0-.13.17.17,0,0,0-.1,0l-.08.07a.31.31,0,0,0,.1.1.37.37,0,0,0,.12.07Zm1.27.71-1.21-.48.07-.18.86.34c-.05-.09-.1-.15-.13-.2a.51.51,0,0,0-.14-.15.39.39,0,0,0-.16-.1l-.11,0a.51.51,0,0,1,.13-.09.3.3,0,0,1,.21,0,.52.52,0,0,1,.21.21A2,2,0,0,1,47,50a.58.58,0,0,0,.12.2l.06,0-.07.18Zm.83.51-.11-.06-.13-.12a.72.72,0,0,1-.11-.19.27.27,0,0,1-.17,0,.5.5,0,0,1-.19-.07L47,50.37l.1-.17.15.08a.31.31,0,0,0,.18,0,.53.53,0,0,0,.16,0,.62.62,0,0,1,.23-.07.55.55,0,0,1,.19,0v.24a.8.8,0,0,1,0,.22l-.1.17Zm0-.26a.68.68,0,0,0,0-.14.56.56,0,0,0,0-.13.21.21,0,0,0-.11,0l-.09,0a.49.49,0,0,0,.06.13.52.52,0,0,0,.1.11Zm2,2.35-.29-.41a.21.21,0,0,1,0-.11.11.11,0,0,1,0-.1l.06,0,.08,0v0a.11.11,0,0,0,0,.15l.25.35a.89.89,0,0,0,.24-.23.42.42,0,0,0,0-.31l.19-.12a.6.6,0,0,1-.09.41,1.43,1.43,0,0,1-.33.31l-.16.11Zm.48.82-.21-.36a.29.29,0,0,1,0,.16.28.28,0,0,1-.12.14.43.43,0,0,1-.13.05.11.11,0,0,1-.11-.06.4.4,0,0,1-.05-.26.37.37,0,0,1,.2-.27l.07,0-.13-.22.17-.09.15.24.21,0a.75.75,0,0,1,.22,0,.2.2,0,0,1,.15.08s0,.05,0,.08a.22.22,0,0,1-.1.09.24.24,0,0,1-.16,0,.68.68,0,0,1-.19-.11l.25.43-.17.1Zm.15-.51c.06,0,.08-.07.07-.1a.22.22,0,0,0-.15,0,.65.65,0,0,0-.2,0,.48.48,0,0,0,.15.11.18.18,0,0,0,.13,0Zm-.53.35s.08-.09.08-.2a.51.51,0,0,0,0-.22.36.36,0,0,0-.15.15.27.27,0,0,0,0,.24l0,0a0,0,0,0,0,0,0Zm.72,1.06-.06-.15a.39.39,0,0,1,0-.15.25.25,0,0,1,.06-.17.48.48,0,0,1-.16-.12.76.76,0,0,1-.15-.23l0-.1.19-.07,0,.09a.8.8,0,0,0,.08.16.62.62,0,0,0,.14.14l0-.07a.14.14,0,0,0,0-.09l0,0,0,0v0l.07,0a.19.19,0,0,1,.18,0,.46.46,0,0,1,.12.18.58.58,0,0,1,0,.2.14.14,0,0,1-.09.15H51l-.14-.06s0,0,0,.08a.28.28,0,0,0,0,.09l.07.15-.19.07Zm.22.94,0-.11a.51.51,0,0,1,0-.18.52.52,0,0,1,.07-.21.33.33,0,0,1-.14-.11.38.38,0,0,1-.08-.18l0-.18.19,0,0,.17A.46.46,0,0,0,51,55a.47.47,0,0,0,.14.08.67.67,0,0,1,.21.13.53.53,0,0,1,.12.14l-.18.17a.8.8,0,0,1-.19.11l-.2,0Zm.19-.18.12-.07a.76.76,0,0,0,.09-.09.27.27,0,0,0-.07-.08l-.09,0a.29.29,0,0,0-.05.13.26.26,0,0,0,0,.15Z"/><polygon class="cls-35" points="60.77 57.39 60.95 57.89 61.49 57.91 61.07 58.24 61.22 58.76 60.77 58.46 60.33 58.76 60.47 58.24 60.05 57.91 60.59 57.89 60.77 57.39"/><circle class="cls-4" cx="43.73" cy="56.91" r="6.43"/><path class="cls-2" d="M35.56,58.63l.8-.18.06.22-.52.25h.58l.05.22-.81.19,0-.13.63-.15h-.66l0-.14.6-.29-.63.15,0-.14Zm1,.61.06.14-.42.17-.12.05a.16.16,0,0,0-.06.08.12.12,0,0,0,0,.1.12.12,0,0,0,.06.08h.08l.13,0,.43-.18.06.14-.41.17-.2.07h-.11A.21.21,0,0,1,36,60a.35.35,0,0,1-.07-.12.41.41,0,0,1,0-.16.35.35,0,0,1,0-.11A.23.23,0,0,1,36,59.5l.19-.1.41-.16Zm-.46,1.07.74-.37.07.14-.29.15.13.26.29-.15.07.14-.74.37-.07-.14.32-.16-.13-.26-.32.16Zm.74,1.3-.09-.13.12-.16-.16-.25-.2,0L36.42,61l.85-.21.09.13-.53.7ZM37,61.2l.2-.25-.31.08Zm0,.54.65-.51.14.18-.36.45.52-.25.14.18-.65.52-.08-.11.51-.41-.61.29L37.08,62l.43-.52-.52.4Zm.58.73.6-.57.16.16-.32.49.5-.3.16.17L38,63l-.09-.1.47-.45-.58.35-.1-.11.37-.56-.47.46-.1-.11Zm1.18,1.1-.12-.1.07-.19-.22-.19-.17.1-.13-.1.76-.45.12.11-.31.82Zm0-.43.12-.3-.28.17.16.13Zm.61-.16.22.16a.57.57,0,0,1,.11.1.28.28,0,0,1,0,.13.26.26,0,0,1,0,.15,1,1,0,0,1-.09.17.4.4,0,0,1-.13.13.34.34,0,0,1-.15.07.17.17,0,0,1-.12,0L39,63.82l-.23-.17.49-.67Zm0,.2-.32.45.09.06a.25.25,0,0,0,.08.05h.07s0,0,.07,0a.68.68,0,0,0,.11-.12.88.88,0,0,0,.07-.12s0-.07,0-.09a.11.11,0,0,0,0-.08l-.1-.08-.05,0Zm.16.92.42-.71.13.08-.42.71Zm.49.27.15-.31,0-.55.16.07V64l.3-.22.16.07-.46.32-.15.31L40,64.37Zm1.05.45-.15-.06v-.2l-.27-.11-.13.16-.15-.06.58-.67.14.06Zm-.13-.4,0-.33-.21.25Zm.28.45.22-.8.15,0-.09.31.28.08.09-.31.14,0-.22.8-.14,0,.1-.35-.29-.08-.09.35-.15,0Zm1.93-.46h.43l.08,0a.18.18,0,0,1,.05.07.3.3,0,0,1,0,.1.23.23,0,0,1,0,.11.27.27,0,0,1-.08.07.18.18,0,0,1,.1.07.28.28,0,0,1,0,.13.2.2,0,0,1,0,.11.17.17,0,0,1-.06.08.21.21,0,0,1-.11,0h-.43l0-.83Zm.15.14v.19h.21l.06,0a.11.11,0,0,0,0-.06s0,0,0-.06a.1.1,0,0,0-.05,0h-.21Zm0,.33v.22h.25l.05,0a.09.09,0,0,0,0-.07.14.14,0,0,0,0-.07s0,0,0,0h-.26Zm.6,0a.46.46,0,0,1,0-.21.23.23,0,0,1,.06-.12.2.2,0,0,1,.09-.09.38.38,0,0,1,.16,0,.32.32,0,0,1,.27.09.49.49,0,0,1,.12.31.45.45,0,0,1-.07.32.36.36,0,0,1-.26.14.36.36,0,0,1-.27-.1.46.46,0,0,1-.12-.3Zm.15,0a.34.34,0,0,0,.08.21.15.15,0,0,0,.15.06.16.16,0,0,0,.14-.08.39.39,0,0,0,0-.43.2.2,0,0,0-.15-.06.22.22,0,0,0-.15.08.46.46,0,0,0,0,.22Zm1.45.24-.16,0-.1-.17-.29,0,0,.2-.16,0,.13-.87.15,0,.45.76Zm-.33-.27L45,64.53l0,.32.2,0Zm.48.24-.2-.8.3-.08a.42.42,0,0,1,.18,0,.16.16,0,0,1,.1,0,.23.23,0,0,1,.06.12.18.18,0,0,1,0,.16.19.19,0,0,1-.12.11.31.31,0,0,1,.1,0l.11.11.13.13-.17.05-.15-.15-.11-.1-.05,0h-.11l.09.33-.15,0Zm0-.5.11,0,.12,0a.1.1,0,0,0,0,0v-.06a.09.09,0,0,0,0-.06l-.06,0-.11,0-.11,0,0,.21Zm.46-.48.25-.1a.51.51,0,0,1,.14,0,.31.31,0,0,1,.13,0,.35.35,0,0,1,.12.1.87.87,0,0,1,.09.17.64.64,0,0,1,0,.17.47.47,0,0,1,0,.17.3.3,0,0,1-.07.1l-.12.06-.26.11-.31-.77Zm.19.08.21.5.1,0,.08,0,0,0a.28.28,0,0,0,0-.09s0-.09,0-.15l-.07-.13-.07-.06h-.08l-.12,0-.06,0Zm.88.38-.34-.76.14-.06.33.76Zm.34-.14-.42-.72.13-.07.54.32-.28-.48.12-.07.42.72-.13.08-.54-.32.28.47-.12.07Zm.81-.87-.08-.11.27-.19.19.27a.47.47,0,0,1-.06.15.35.35,0,0,1-.13.14.39.39,0,0,1-.19.08.36.36,0,0,1-.2-.06.59.59,0,0,1-.17-.15.47.47,0,0,1-.09-.22.39.39,0,0,1,0-.21.29.29,0,0,1,.12-.13A.31.31,0,0,1,48.2,63a.37.37,0,0,1,.19.09l-.11.11a.18.18,0,0,0-.1,0,.23.23,0,0,0-.11,0,.24.24,0,0,0-.09.15.3.3,0,0,0,.08.2.34.34,0,0,0,.17.15.17.17,0,0,0,.17,0,.23.23,0,0,0,.07-.07.16.16,0,0,0,0-.09l-.06-.09-.14.1Zm1.21-1,.09-.13a.16.16,0,0,0,.12,0,.14.14,0,0,0,.1,0,.21.21,0,0,0,0-.11.09.09,0,0,0,0-.08l0,0a.11.11,0,0,0-.07,0l-.1.06a.45.45,0,0,1-.18.08.27.27,0,0,1-.17-.06.36.36,0,0,1-.07-.1.28.28,0,0,1,0-.13.31.31,0,0,1,.08-.13.26.26,0,0,1,.19-.11.22.22,0,0,1,.18.06l-.09.12-.1,0s-.05,0-.08,0a.31.31,0,0,0-.05.1.05.05,0,0,0,0,.05s0,0,0,0,.07,0,.13-.07l.15-.08a.25.25,0,0,1,.12,0,.25.25,0,0,1,.12.07.28.28,0,0,1,.08.11.22.22,0,0,1,0,.14.41.41,0,0,1-.08.14.33.33,0,0,1-.2.12.4.4,0,0,1-.22-.07Zm.77-1,.13-.09a.49.49,0,0,1,.1.21.36.36,0,0,1-.06.2.33.33,0,0,1-.24.14.51.51,0,0,1-.31-.11.46.46,0,0,1-.2-.27.31.31,0,0,1,.06-.27.28.28,0,0,1,.2-.12.36.36,0,0,1,.17,0l-.06.15a.15.15,0,0,0-.11,0,.15.15,0,0,0-.09.06.21.21,0,0,0,0,.15.44.44,0,0,0,.15.17.37.37,0,0,0,.21.09.17.17,0,0,0,.13-.07.14.14,0,0,0,0-.11.24.24,0,0,0-.07-.13Zm.45-.1L50,61.05l.08-.13.28.17.15-.26-.29-.16.08-.13L51,61l-.08.13-.31-.19-.15.26.31.18-.08.13Zm0-.85-.18-.12a.41.41,0,0,1-.07-.11.27.27,0,0,1,0-.12.5.5,0,0,1,0-.16.34.34,0,0,1,.22-.19.45.45,0,0,1,.33,0,.44.44,0,0,1,.24.22.31.31,0,0,1,0,.28.37.37,0,0,1-.21.2.49.49,0,0,1-.33,0Zm.06-.14a.36.36,0,0,0,.22,0,.2.2,0,0,0,.13-.11.18.18,0,0,0,0-.16A.31.31,0,0,0,51,60.1a.38.38,0,0,0-.22,0,.17.17,0,0,0-.12.11.15.15,0,0,0,0,.16.32.32,0,0,0,.17.15Zm.29-.63a.67.67,0,0,1-.19-.1.39.39,0,0,1-.08-.1.28.28,0,0,1,0-.12.31.31,0,0,1,0-.16.33.33,0,0,1,.19-.21.45.45,0,0,1,.34,0,.48.48,0,0,1,.26.19.33.33,0,0,1,0,.29.33.33,0,0,1-.19.21A.47.47,0,0,1,51.11,59.85Zm0-.15a.35.35,0,0,0,.22,0,.19.19,0,0,0,.1-.28.41.41,0,0,0-.41-.14.17.17,0,0,0-.11.11.2.2,0,0,0,0,.17.39.39,0,0,0,.19.12Zm.63-.59-.8-.18,0-.15.66.15.09-.36.13,0-.11.51Z"/><polygon class="cls-35" points="26.59 57.39 26.78 57.89 27.31 57.91 26.89 58.24 27.04 58.76 26.59 58.46 26.15 58.76 26.29 58.24 25.87 57.91 26.41 57.89 26.59 57.39"/><g id="_2513682746976" data-name=" 2513682746976"><path class="cls-3" d="M45.23,58.13l.44.37c.15.15.53.45.66.57a.27.27,0,0,0,.08.07,2.29,2.29,0,0,0-.07.25c0,.09,0,.17-.06.27l-.11.55H45.3c-.07,0,0,.18,0,.27.21.05.47.12.47.42a.82.82,0,0,1-.16.62c-.19.26-.52.35-.66.08a1.74,1.74,0,0,1-.13-1,2.38,2.38,0,0,1,.49-1l.05-.06a1.14,1.14,0,0,0-.11-.11l-.35-.3-.05-.06-.3-.25s-.05-.06-.15-.06l0,0a2.34,2.34,0,0,0,.65-.4l.18-.19Zm-3.15,1.38.05.06,0,.07.34.59a1.71,1.71,0,0,1,0,1.22c-.06.2-.14.31-.35.31a.55.55,0,0,1-.38-.26c-.17-.25-.22-.71,0-.87a.83.83,0,0,1,.36-.15v-.27h-.43l-.47,0-.11-.54c0-.18-.07-.36-.11-.53l.36-.32c.15-.13.77-.67.85-.72a1.78,1.78,0,0,0,.57.48l.24.11c-.06.08,0-.06-.21.12l-.29.26a1.06,1.06,0,0,1-.12.1l0,.06-.19.16-.12.1ZM42,57a1.8,1.8,0,0,1,.16-.84,1.78,1.78,0,0,1,.85-.86,1.78,1.78,0,0,1,2.36,2.41,1.5,1.5,0,0,1-.26.38,2.08,2.08,0,0,1-.21.21l-.26.17-.15.07a1.83,1.83,0,0,1-.33.11,1.72,1.72,0,0,1-1.1-.11,1.41,1.41,0,0,1-.4-.25l-.17-.15a1.63,1.63,0,0,1-.38-.6L42,57.41A1.51,1.51,0,0,1,42,57Zm2.56-1.78h.05C44.58,55.31,44.57,55.28,44.54,55.25Zm0,0s0,0,0,0S44.52,55.22,44.54,55.25Zm0,0h0Zm0,0c0-.07.2-.43.24-.52s.17-.34.25-.51.26-.51.37-.77a.25.25,0,0,0,0-.15,1,1,0,0,1,0-.17.51.51,0,0,0-.26.2L45,53.5c-.07.19-.13.37-.19.55l-.14.41,0,.14c0,.1-.06.18-.1.28s-.07.2-.1.27a.38.38,0,0,1-.15,0c.06-.24.37-1.14.38-1.27a1.66,1.66,0,0,0,0-.22c-.05,0-.08.08-.11.12a1.24,1.24,0,0,0-.12.37,1.77,1.77,0,0,1,0,.2c-.06.26-.11.52-.17.78l-.16,0c0-.05.31-1.62.33-1.73.06-.3.07-.19,0-.4,0,0,0-.09-.07-.11a.79.79,0,0,0-.14.17.21.21,0,0,0,0,.12l0,.43c0,.12,0,.2,0,.31l0,.44a.75.75,0,0,1,0,.15l0,.6h-.19a2.54,2.54,0,0,0,0-.41v-.21c0-.21,0-.63,0-.82s0-.42,0-.63,0-.12,0-.21l0-.52c0-.06,0-.08,0-.13a1.1,1.1,0,0,0-.14-.21s-.06.09-.09.13l-.09.14a1.34,1.34,0,0,0,0,.4c0,.13,0,.28,0,.41s0,.65,0,.82,0,.59,0,.82a3,3,0,0,1,0,.42h-.17a2.64,2.64,0,0,0,0-.29l-.1-1.52c0-.29.05-.12-.18-.39,0,0,0,0,0,0a2.5,2.5,0,0,1-.09.25c0,.1.17,1,.2,1.14l.12.57c0,.08.05.21.05.28a.42.42,0,0,1-.16,0,1.16,1.16,0,0,1,0-.18l-.23-1a.42.42,0,0,0-.12-.24s0,0-.07,0,0,.14,0,.2c0,.26.37,1.11.39,1.27l-.15,0a4.29,4.29,0,0,1-.19-.54c-.08-.22-.44-1.3-.49-1.37a1.82,1.82,0,0,0-.23-.15.67.67,0,0,0,0,.31l.67,1.39a.75.75,0,0,1,.06.13,1.34,1.34,0,0,1,.13.27l-.16.08a3.14,3.14,0,0,0-.18-.37l-.53-1.07c-.18-.36-.35-.72-.54-1.06,0-.06-.1-.08-.16-.11a1.11,1.11,0,0,0-.19-.09c0,.18,0,.31.05.46l1.39,2.1a.64.64,0,0,1,.1.18.16.16,0,0,0-.08,0c0,.06,0,0,0,0l0,0c0-.08,0,0-.07-.1-.2-.28-.39-.57-.58-.85l-.49-.72a.2.2,0,0,0-.13-.08l-.16,0c0,.08,0,.12,0,.18s0,.13.14.25l.92,1.06a2,2,0,0,1,.27.31c-.06,0-.06.06-.12.1a1.8,1.8,0,0,1-.19-.2l-.14-.14a3.45,3.45,0,0,0-.26-.28,2.77,2.77,0,0,0-.33-.35.68.68,0,0,0-.2-.07.62.62,0,0,0,.07.19c0,.07.09.09.14.14l.78.73s.06,0,.07.08-.08,0-.12.08a2.44,2.44,0,0,1-.32-.26l-.46-.41c-.23-.19-.46-.4-.7-.59s-.2-.06-.34-.06c.13.27,0,.22.36.44l1.29.86a.42.42,0,0,0,.12.08s-.07.1-.08.15c-.2-.11-.61-.39-.81-.52l-1.46-1a.24.24,0,0,0-.2-.06h-.27a.73.73,0,0,0,.2.34c.22.14.84.43,1.06.54l1.25.62L42,56l.09,0c0,.06-.07.1,0,.14s0,0,0,0l-.07,0-.07,0-.13-.06-1.31-.63-.26-.13s-.09,0-.15,0l-.16,0c0,.05.05.08.07.12s.06.11.2.16l.69.23.27.09.67.24.15,0c0,.05,0,.06,0,.11s0,0,0,.06-1-.29-1.13-.34L40.66,56l-.22,0c0,.1.22.17.29.19l1,.21.2,0a.66.66,0,0,0,0,.15c-.15,0-1.5-.28-1.71-.32s-.27-.06-.52.08a.51.51,0,0,0,.28.19h.15l.29,0,.59,0,.3,0,.29,0,.31,0v.17c-.23,0-.45,0-.66,0l-.32,0H40.7l-.83-.05c-.12,0-.56,0-.66,0v.38c.07,0,.81,0,1-.06l.33,0c.3,0,.67,0,1-.06h.34v.17l-.88.06-.31,0-.58,0c-.12,0-.19,0-.26.05l-.09.07a.34.34,0,0,0-.09.08.82.82,0,0,0,.23.11,7.3,7.3,0,0,0,.86-.14l.56-.12.28-.05a1.35,1.35,0,0,1,.29,0,.7.7,0,0,1,0,.16l-.77.17a2,2,0,0,0-.55.16.5.5,0,0,0-.13.12l.2,0a1.25,1.25,0,0,0,.37-.09,1.06,1.06,0,0,1,.19-.06l.36-.11.18-.06.19-.06c0,.07,0,.09,0,.16s-.21.07-.28.09-1.54.52-1.6.58a.73.73,0,0,0-.16.22.77.77,0,0,0,.3,0l1.27-.61A4.31,4.31,0,0,1,42,57.7s0,.09.07.15-1.31.65-1.42.7l-.71.36-.35.19c-.06,0-.07.08-.11.15s-.09.2.18.2.21-.07.36-.17.42-.29.64-.42l1.12-.75.16-.1a.75.75,0,0,1,.17-.1l.09.15c-.11,0-1.56,1-1.62,1.1s-.08.19-.13.28c.31,0,.23,0,.44-.13a.51.51,0,0,0,0,.13v2.2c0,.13,0,.22,0,.33h2.52V59.6c0-.27,0-.51,0-.79a2.54,2.54,0,0,0,.29,0l-.06,1.23c0,.13,0,.27,0,.41l-.05.92s0,.08,0,.11,0,.09,0,.17a1,1,0,0,0,.18.26c0-.17.21-.18.18-.46s0-.8-.06-1,0-.57,0-.81l0-.81c.33,0,.26-.19.26.54V62h2.53c0-.46,0-.88,0-1.33V59.28l.08.07c.14.11.08.09.38.09a.66.66,0,0,0-.12-.27c-.06-.07-.79-.54-.92-.63l-.23-.15-.35-.24a.42.42,0,0,0-.12-.08.22.22,0,0,1,.08-.14,8.83,8.83,0,0,1,.82.52c.25.15.56.36.81.53l.48.31c.22.13.18.17.35.16l.26,0a.7.7,0,0,0-.21-.34l-.73-.37L47,58.63l-.19-.09-1.36-.68s-.06,0-.07-.07,0,0,.06,0l.06-.12.76.35.12.07c.2.1.71.35.89.42a.63.63,0,0,0,.31,0l-.14-.22c-.05-.06-.19-.08-.26-.11l-1.36-.47a1.83,1.83,0,0,1-.28-.1,1.31,1.31,0,0,0,0-.15c.28.07,1.11.37,1.26.38a1.36,1.36,0,0,0,.2,0c0-.06,0,0,0-.07a.51.51,0,0,0-.23-.12l-.39-.08L46,57.46l-.19,0a1.42,1.42,0,0,0-.2,0,.31.31,0,0,1,0-.17c.38.09.75.14,1.13.22a7.27,7.27,0,0,0,.85.15.63.63,0,0,0,.23-.13s-.06-.05-.08-.07a.71.71,0,0,0-.09-.07,4.52,4.52,0,0,0-.85-.09c-.23,0-.5,0-.73-.06l-.45,0a1,1,0,0,1,0-.18L46,57l.71,0c.22,0,.9,0,1.07.06l.7.05v-.4l-.52,0-.89.06h-.35c-.31,0-.77.06-1.07.06,0-.2-.07-.15.14-.17s.65-.05.95-.07l.63,0c.28,0,.25,0,.39-.12a.65.65,0,0,0,.09-.08.57.57,0,0,0-.22-.12,7,7,0,0,0-.86.14l-.57.12-.57.11,0-.17.77-.17.39-.09A.45.45,0,0,0,47,56.1s.05,0,.05-.08c-.22,0-.09-.07-.38,0l-.36.12-.17.05-.37.12a1,1,0,0,0-.18.06.38.38,0,0,1,0-.16c.09,0,.18-.06.27-.09l.82-.29a8.31,8.31,0,0,0,.81-.29,1.28,1.28,0,0,0,.14-.23.64.64,0,0,0-.31,0l-.06,0c-.21.09-.74.36-1,.46l-.25.13-.12.06a3.39,3.39,0,0,1-.39.18c0-.07,0-.09-.06-.16l.71-.36.71-.35.71-.36c.11-.06.24-.11.35-.18a.81.81,0,0,0,.2-.35h-.27a.23.23,0,0,0-.2.06c-.67.42-1.31.87-2,1.3l-.28.18,0,0s0,0,0-.06,0,.06,0,0a.24.24,0,0,1-.06-.11s.59-.4.69-.46l.47-.32c.15-.12.32-.21.46-.32s.05-.07.08-.13a.75.75,0,0,0,0-.16.48.48,0,0,0-.43.15l-.11.09c-.16.16-.73.65-.93.82l-.21.18-.11.09a.22.22,0,0,1-.11-.12.2.2,0,0,1,.07-.06l.07-.07.2-.19c.17-.14.32-.31.5-.45l.13-.13s.08-.18.06-.2-.16.05-.19.06a.94.94,0,0,0-.2.2l-.32.35-.06.07-.14.15a2,2,0,0,1-.19.21.36.36,0,0,1-.11-.1,4.93,4.93,0,0,1,.44-.53s0,0,0-.05l.18-.21.27-.32.19-.21a.52.52,0,0,0,.19-.5,1.31,1.31,0,0,0-.21.08l0,0h0a2.15,2.15,0,0,0-.18.24l-.15.23-.08.12c-.06.08-.7,1-.71,1.06s-.1-.06-.16-.08,0-.05.05-.08.25-.38.37-.57L46.2,53c.12-.17.06-.2.06-.47a.73.73,0,0,0-.34.2l-.54,1.07c-.24.47-.47.95-.72,1.42-.07,0-.07,0-.16,0Zm-1.31,2.37a.25.25,0,0,1-.13,0c-.14-.09-.06-.14-.05-.17l0-.08c.05-.15.06-.36.18-.44s.1.14.24.14.13-.06.21-.06a.55.55,0,0,1-.29.55A.35.35,0,0,1,43.19,57.58Zm1.35-1.12s0,0,0,0h0s0,0,0,.05Zm-1.34,0a.35.35,0,0,0,0,.11c-.1.06-.12.06-.18.15A.79.79,0,0,0,43,57c0,.06,0,.14,0,.18h-.1l-.08-.22-.07-.23c-.05,0-.07.14-.07.16a.78.78,0,0,0,0,.16c0,.21,0,.19.15.32s.06,0,.1.18a.66.66,0,0,0,0,.15.23.23,0,0,0,.24.14.53.53,0,0,0,.41-.19l.06-.08c0-.05.14-.26.19-.27l.1.22a.68.68,0,0,0,.38.28.82.82,0,0,0,.28,0,.84.84,0,0,0-.11-.21h-.24c-.07,0,0-.14,0-.18l.17-.18a.29.29,0,0,1,.12-.07c.19-.1.44-.07.44-.27v-.07a.65.65,0,0,0-.2.05.85.85,0,0,1-.36,0l-.09,0s.12-.08.17-.1,0,0,.1,0l.1,0s-.05-.09-.05-.12.12,0,.12-.17-.37-.24-.41-.13,0,.13,0,.22l-.13.06c-.27.12-.3.14-.3.4a.42.42,0,0,0,0,.12.19.19,0,0,0,.1,0l.1-.06a1.22,1.22,0,0,1-.1.34c-.11-.07-.08,0-.13-.17s-.06-.13-.09-.21a.86.86,0,0,1-.07-.21c0-.07.07-.1.07-.27s0,0-.06,0a.64.64,0,0,1-.1.13.78.78,0,0,0,0-.14c0-.05,0-.1,0-.14a.27.27,0,0,0-.09.35.15.15,0,0,1,0,.07.61.61,0,0,1-.18-.05s0-.1,0-.14l-.06,0c0-.13.41-.36.53-.43a.29.29,0,0,0,.12-.07c.12-.1.13-.13.13-.26a6.3,6.3,0,0,0-.69.44.27.27,0,0,0-.16.22ZM44.36,56h0v0c.06,0,.07,0,.07,0Zm-.12,0c0,.07,0,.08.07.12-.12.17-.19.19-.19.37s0,0,.05,0l.06-.06.1-.12s.05-.1.08-.14.1-.07.12-.12h-.08c0-.26-.21-.18-.21,0Zm-1.12.22c.06,0,.09,0,.17,0l.14-.09a.42.42,0,0,0,.2-.29c-.11,0-.5.25-.51.42Zm.87,0a.21.21,0,0,0-.12,0,.56.56,0,0,1,0,.12.09.09,0,0,1,0-.07H43.7c-.06.13.07.2.16.2s.09,0,.1-.11h.1s0,0,0-.08,0-.08,0-.14H44a.28.28,0,0,0,0,.1Zm-.53,1.69c0,.06,0,.1.06.06s0,0,.06-.05l.25-.29s.05-.07,0-.16-.4.31-.4.44Zm1-.58.08,0a.18.18,0,0,0,0,.2l.17,0c.06,0,.11-.22,0-.15l-.09,0c0-.06.08-.12.08-.19a.33.33,0,0,0-.17,0c-.07,0-.1.13-.06.13Zm-1.13-.1-.17,0c0,.1,0,.15.06.15s.12-.05.12-.14.19,0,.19-.12-.14-.12-.18,0,0,.09,0,.13Zm.53.48s.05.12.05.14-.12.11,0,.19c.13-.08.13-.1,0-.27l0-.07a.26.26,0,0,0-.07-.11s0,.1,0,.12ZM43,56.3c0,.06,0,.1,0,.14l.1,0c.07,0,.22-.16,0-.19s-.06,0-.11,0Zm-.27.26c.07.1.26.07.21-.09s0,0-.13,0-.07.09-.08.13Z"/><polygon class="cls-3" points="48.47 56.73 48.74 56.93 48.47 57.13 48.47 56.73"/><polygon class="cls-3" points="39.22 56.72 38.94 56.92 39.22 57.12 39.22 56.72"/></g></g><text class="cls-36" transform="translate(68.76 54.37)">SM<tspan class="cls-37" x="18.52" y="0">P</tspan><tspan x="26.84" y="0"> </tspan><tspan class="cls-38" x="29.82" y="0">M</tspan><tspan x="42.28" y="0">UHAMM</tspan><tspan class="cls-39" x="96.42" y="0">A</tspan><tspan x="105.75" y="0">DI</tspan><tspan class="cls-40" x="120.58" y="0">Y</tspan><tspan class="cls-39" x="127.97" y="0">A</tspan><tspan class="cls-41" x="137.3" y="0">H</tspan><tspan class="cls-42" x="0" y="15.92">A</tspan><tspan class="cls-43" x="9.33" y="15.92">L</tspan><tspan x="16.58" y="15.92" xml:space="preserve"> - GHI</tspan><tspan class="cls-44" x="51.53" y="15.92">F</tspan><tspan class="cls-39" x="57.59" y="15.92">A</tspan><tspan x="66.92" y="15.92">R</tspan><tspan class="cls-41" x="76.79" y="15.92">I</tspan></text></svg>