<?xml version="1.0" encoding="utf-8"?>
<!-- Generator: Adobe Illustrator 24.3.0, SVG Export Plug-In . SVG Version: 6.00 Build 0)  -->
<svg version="1.1" id="Layer_1" xmlns="http://www.w3.org/2000/svg" xmlns:xlink="http://www.w3.org/1999/xlink" x="0px" y="0px"
	 viewBox="0 0 240 120" style="enable-background:new 0 0 240 120;" xml:space="preserve">
<style type="text/css">
	.st0{fill-rule:evenodd;clip-rule:evenodd;fill:#6E2369;}
	.st1{fill-rule:evenodd;clip-rule:evenodd;fill:#FFFFFF;}
	.st2{fill:none;}
	.st3{fill:#010101;}
	.st4{fill:none;stroke:#010101;stroke-width:0.0208;stroke-miterlimit:2.6131;}
	.st5{font-family:'Arial-BoldMT';}
	.st6{font-size:2.2199px;}
	.st7{fill:none;stroke:#010101;stroke-width:0.0176;stroke-miterlimit:2.6131;}
	.st8{fill-rule:evenodd;clip-rule:evenodd;fill:#222160;}
	.st9{fill-rule:evenodd;clip-rule:evenodd;fill:#099146;}
	.st10{fill:none;stroke:#FFFFFF;stroke-width:0.2317;stroke-miterlimit:22.9256;}
	.st11{fill-rule:evenodd;clip-rule:evenodd;fill:#FFFFFF;stroke:#1A1A1A;stroke-width:0.2317;stroke-miterlimit:22.9256;}
	.st12{fill:#1A1A1A;}
	.st13{fill-rule:evenodd;clip-rule:evenodd;fill:#010101;stroke:#FFFFFF;stroke-width:0.0547;stroke-miterlimit:22.9256;}
	.st14{fill:#FFFFFF;}
	.st15{font-family:'EBGaramond-SemiBold';}
	.st16{font-size:13.267px;}
</style>
<g id="Layer_x0020_1">
	<circle class="st0" cx="43.73" cy="56.91" r="18.92"/>
	<circle class="st1" cx="43.73" cy="56.91" r="18.51"/>
	<path class="st1" d="M43.73,38.5c10.17,0,18.41,8.24,18.41,18.41S53.9,75.33,43.73,75.33s-18.41-8.24-18.41-18.41
		S33.56,38.5,43.73,38.5z M43.73,41.19c8.68,0,15.72,7.04,15.72,15.72s-7.04,15.72-15.72,15.72S28.01,65.6,28.01,56.91
		S35.05,41.19,43.73,41.19L43.73,41.19z"/>
	<circle class="st2" cx="43.73" cy="56.91" r="16.18"/>
	<path class="st3" d="M28.11,61.25l0.18,0.51c0.03,0.1,0.06,0.18,0.06,0.23c0.01,0.05,0,0.1-0.02,0.15
		c-0.02,0.05-0.05,0.1-0.09,0.14c-0.04,0.04-0.1,0.08-0.16,0.1c-0.07,0.02-0.14,0.03-0.21,0.02c-0.07-0.01-0.13-0.04-0.18-0.08
		c0,0.09-0.03,0.16-0.08,0.22c-0.05,0.06-0.12,0.11-0.21,0.14c-0.07,0.02-0.14,0.03-0.21,0.03c-0.07,0-0.14-0.02-0.19-0.06
		c-0.05-0.03-0.1-0.08-0.13-0.15c-0.02-0.04-0.06-0.14-0.12-0.3l-0.15-0.43L28.11,61.25L28.11,61.25z M27.95,61.59l-0.35,0.12
		l0.06,0.17c0.03,0.1,0.06,0.16,0.07,0.18c0.02,0.04,0.05,0.07,0.09,0.08c0.04,0.01,0.08,0.01,0.13,0c0.05-0.02,0.08-0.04,0.1-0.07
		c0.02-0.03,0.03-0.07,0.02-0.11c-0.01-0.03-0.03-0.1-0.07-0.22L27.95,61.59L27.95,61.59z M27.36,61.8l-0.4,0.14l0.08,0.24
		c0.03,0.09,0.06,0.15,0.07,0.17c0.02,0.04,0.05,0.06,0.09,0.07c0.04,0.01,0.09,0.01,0.14-0.01c0.05-0.02,0.08-0.04,0.11-0.07
		c0.03-0.03,0.04-0.06,0.04-0.1c0-0.04-0.02-0.12-0.06-0.23L27.36,61.8L27.36,61.8z M27.7,64.58l-0.12-0.27l0.28-0.25l-0.22-0.49
		l-0.38,0.05l-0.12-0.26l1.66-0.18l0.12,0.26L27.7,64.58L27.7,64.58z M28.07,63.86l0.46-0.41l-0.61,0.08L28.07,63.86L28.07,63.86z
		 M28.04,65.25l1.18-0.59l-0.18-0.35l0.24-0.12l0.48,0.95l-0.24,0.12l-0.18-0.35l-1.18,0.59L28.04,65.25L28.04,65.25z M29.26,67.27
		l-0.16-0.25l0.24-0.29l-0.29-0.45l-0.37,0.1l-0.15-0.24l1.62-0.42l0.15,0.24L29.26,67.27L29.26,67.27z M29.53,66.51l0.4-0.47
		l-0.59,0.16L29.53,66.51L29.53,66.51z M29.64,67.73l1.25-0.98l0.16,0.21l-0.5,1.09l0.84-0.66l0.16,0.2l-1.25,0.98l-0.17-0.21
		l0.48-1.07l-0.82,0.65L29.64,67.73L29.64,67.73z M31.64,69.13l0.19-0.19l0.42,0.4l-0.44,0.46c-0.09,0.01-0.19-0.01-0.3-0.05
		c-0.11-0.04-0.21-0.1-0.29-0.17c-0.1-0.1-0.17-0.21-0.19-0.33C31,69.12,31.02,69,31.07,68.87c0.05-0.13,0.13-0.25,0.24-0.36
		c0.11-0.12,0.24-0.21,0.37-0.26c0.13-0.05,0.26-0.06,0.39-0.04c0.1,0.02,0.19,0.08,0.29,0.16c0.12,0.12,0.19,0.24,0.2,0.36
		c0.01,0.12-0.03,0.25-0.11,0.37l-0.24-0.14c0.04-0.07,0.06-0.14,0.05-0.21c-0.01-0.07-0.04-0.13-0.09-0.18
		c-0.09-0.08-0.18-0.11-0.3-0.1c-0.11,0.02-0.23,0.09-0.35,0.21c-0.13,0.14-0.2,0.26-0.22,0.38c-0.01,0.12,0.02,0.22,0.1,0.29
		c0.04,0.04,0.09,0.07,0.15,0.09c0.06,0.02,0.12,0.03,0.17,0.03l0.14-0.15L31.64,69.13L31.64,69.13z M32.17,70.43l0.98-1.25
		l0.21,0.17l-0.38,0.49l0.42,0.32l0.38-0.49l0.21,0.17l-0.98,1.25l-0.21-0.17l0.43-0.55l-0.42-0.32l-0.43,0.55L32.17,70.43
		L32.17,70.43z M34.61,72.18l-0.25-0.16l0.1-0.37l-0.45-0.29l-0.29,0.24l-0.24-0.16l1.3-1.05l0.24,0.16L34.61,72.18z M34.54,71.38
		l0.16-0.6l-0.47,0.4L34.54,71.38L34.54,71.38z M35.13,72.48l0.72-1.42l0.51,0.26c0.13,0.06,0.21,0.12,0.26,0.18
		c0.05,0.05,0.07,0.12,0.07,0.21c0,0.08-0.02,0.17-0.06,0.25c-0.05,0.11-0.12,0.18-0.21,0.22c-0.09,0.04-0.19,0.05-0.3,0.01
		c0.03,0.06,0.06,0.12,0.07,0.18c0.01,0.06,0.02,0.16,0.02,0.3l0.01,0.35l-0.29-0.15l-0.02-0.4c-0.01-0.14-0.01-0.23-0.02-0.27
		c-0.01-0.04-0.02-0.07-0.04-0.1s-0.06-0.05-0.11-0.08l-0.05-0.02l-0.3,0.59L35.13,72.48L35.13,72.48z M35.78,71.78l0.18,0.09
		c0.12,0.06,0.19,0.09,0.23,0.09c0.03,0,0.07-0.01,0.1-0.03c0.03-0.02,0.06-0.05,0.08-0.09c0.02-0.05,0.03-0.09,0.03-0.13
		c-0.01-0.04-0.03-0.07-0.06-0.1c-0.02-0.01-0.08-0.04-0.17-0.09l-0.19-0.1L35.78,71.78L35.78,71.78z M36.74,73.25l0.59-1.48
		l0.25,0.1l-0.59,1.48L36.74,73.25z M40.29,73.91l0.05-0.3l0.5,0.09l-0.05,0.3L40.29,73.91z M44,74.68l-0.05-1.58l0.27-0.01
		l0.04,1.31l0.67-0.02l0.01,0.27L44,74.68L44,74.68z M46.78,74.44l-0.29,0.04l-0.16-0.34l-0.53,0.07l-0.07,0.37l-0.29,0.03
		l0.32-1.64l0.28-0.03L46.78,74.44L46.78,74.44z M46.21,73.87l-0.26-0.56l-0.11,0.61L46.21,73.87z M47.35,74.31L47,72.76l0.4-0.09
		l0.48,1l-0.01-1.11l0.4-0.09l0.36,1.55l-0.24,0.06l-0.28-1.22l0.02,1.28l-0.25,0.06l-0.54-1.16l0.28,1.22L47.35,74.31L47.35,74.31z
		 M49.3,73.79l-0.52-1.5l0.41-0.14c0.16-0.05,0.26-0.08,0.31-0.08c0.08,0,0.16,0.03,0.23,0.08c0.08,0.06,0.13,0.15,0.18,0.27
		c0.03,0.09,0.04,0.17,0.04,0.25c-0.01,0.07-0.03,0.13-0.06,0.19c-0.03,0.05-0.07,0.09-0.11,0.12c-0.06,0.04-0.14,0.07-0.26,0.11
		l-0.17,0.06l0.2,0.57L49.3,73.79L49.3,73.79z M49.12,72.45l0.15,0.43l0.14-0.05c0.1-0.03,0.16-0.07,0.19-0.09
		c0.03-0.03,0.05-0.06,0.05-0.1c0.01-0.04,0-0.08-0.01-0.13c-0.02-0.05-0.05-0.1-0.09-0.12c-0.04-0.03-0.08-0.04-0.13-0.03
		c-0.03,0-0.09,0.02-0.19,0.05L49.12,72.45L49.12,72.45z M50.22,71.73l0.25-0.11l0.36,0.78c0.06,0.12,0.1,0.2,0.12,0.24
		c0.04,0.05,0.08,0.09,0.14,0.11c0.06,0.02,0.12,0.01,0.19-0.02c0.07-0.03,0.11-0.07,0.13-0.12c0.02-0.05,0.02-0.1,0.01-0.15
		c-0.02-0.05-0.05-0.14-0.1-0.25l-0.36-0.8l0.25-0.11l0.34,0.76c0.08,0.17,0.13,0.3,0.15,0.38c0.02,0.08,0.02,0.15,0.01,0.22
		c-0.01,0.07-0.04,0.13-0.09,0.18c-0.05,0.06-0.12,0.11-0.21,0.15c-0.12,0.05-0.21,0.08-0.29,0.07c-0.07,0-0.14-0.03-0.2-0.06
		c-0.06-0.04-0.11-0.08-0.14-0.13c-0.05-0.08-0.12-0.19-0.19-0.36L50.22,71.73L50.22,71.73z M52.5,72.4l-0.85-1.34l0.22-0.14
		l1.04,0.6l-0.57-0.9l0.21-0.13l0.85,1.34l-0.23,0.15l-1.02-0.59l0.56,0.88L52.5,72.4L52.5,72.4z M54.15,70.58l-0.17-0.21l0.46-0.36
		l0.39,0.5c0,0.09-0.03,0.18-0.09,0.29c-0.05,0.11-0.12,0.19-0.21,0.26c-0.11,0.09-0.23,0.13-0.35,0.14
		c-0.13,0.01-0.25-0.02-0.37-0.09c-0.12-0.07-0.23-0.16-0.32-0.28c-0.1-0.13-0.17-0.26-0.2-0.4c-0.03-0.14-0.03-0.27,0.02-0.39
		c0.03-0.09,0.1-0.18,0.2-0.26c0.13-0.1,0.26-0.15,0.38-0.14c0.12,0.01,0.24,0.06,0.35,0.16L54.07,70c-0.06-0.05-0.13-0.08-0.2-0.08
		c-0.07,0-0.13,0.02-0.2,0.07c-0.09,0.07-0.14,0.17-0.14,0.28c0,0.11,0.05,0.24,0.16,0.38c0.12,0.15,0.23,0.24,0.35,0.27
		c0.11,0.03,0.22,0.01,0.31-0.06c0.04-0.03,0.08-0.08,0.11-0.14c0.03-0.06,0.05-0.11,0.06-0.17l-0.12-0.16L54.15,70.58L54.15,70.58z
		 M57.57,68.06l-1.04-0.81l-0.24,0.31l-0.21-0.16l0.65-0.84l0.21,0.16l-0.24,0.31l1.04,0.81L57.57,68.06z M58.33,67.03l-1.29-0.92
		l0.16-0.22l1.29,0.92L58.33,67.03z M58.88,66.23l-1.38-0.79l0.2-0.35l1.06,0.33l-0.82-0.75l0.2-0.35l1.38,0.79l-0.13,0.22
		l-1.08-0.62l0.95,0.85l-0.13,0.23l-1.22-0.4L59,66.01L58.88,66.23L58.88,66.23z M58.37,63.8l0.11-0.25l0.79,0.35
		c0.12,0.06,0.21,0.09,0.25,0.1c0.06,0.02,0.12,0.01,0.18-0.01c0.05-0.02,0.1-0.07,0.13-0.14c0.03-0.07,0.04-0.13,0.02-0.18
		c-0.02-0.05-0.05-0.09-0.1-0.12c-0.05-0.03-0.13-0.07-0.24-0.12l-0.8-0.36l0.11-0.25l0.76,0.34c0.17,0.08,0.29,0.14,0.36,0.19
		c0.07,0.05,0.12,0.1,0.15,0.16c0.03,0.06,0.05,0.12,0.05,0.2c0,0.07-0.02,0.16-0.06,0.25c-0.05,0.12-0.11,0.2-0.17,0.24
		c-0.06,0.05-0.12,0.07-0.19,0.09c-0.07,0.01-0.13,0.01-0.19,0c-0.09-0.02-0.22-0.07-0.38-0.14L58.37,63.8L58.37,63.8z M60.51,62.79
		L59,62.28l0.18-0.54c0.05-0.14,0.09-0.23,0.14-0.28c0.05-0.05,0.11-0.09,0.19-0.1c0.08-0.01,0.17-0.01,0.26,0.02
		c0.11,0.04,0.2,0.1,0.25,0.18s0.07,0.18,0.06,0.3c0.06-0.04,0.11-0.07,0.17-0.09c0.06-0.02,0.16-0.04,0.29-0.06l0.35-0.06
		l-0.1,0.31l-0.39,0.07c-0.14,0.03-0.23,0.05-0.27,0.06c-0.04,0.01-0.07,0.03-0.09,0.06c-0.02,0.02-0.04,0.07-0.06,0.12l-0.02,0.05
		l0.63,0.21L60.51,62.79L60.51,62.79z M59.72,62.24l0.06-0.19c0.04-0.12,0.06-0.2,0.06-0.24c0-0.03-0.02-0.07-0.04-0.09
		c-0.02-0.03-0.06-0.05-0.1-0.06c-0.05-0.02-0.1-0.02-0.13-0.01c-0.04,0.01-0.07,0.04-0.09,0.08c-0.01,0.02-0.03,0.08-0.07,0.19
		l-0.07,0.2L59.72,62.24L59.72,62.24z"/>
	<path id="_x31_" class="st4" d="M28.11,61.25l0.18,0.51c0.03,0.1,0.06,0.18,0.06,0.23c0.01,0.05,0,0.1-0.02,0.15
		c-0.02,0.05-0.05,0.1-0.09,0.14c-0.04,0.04-0.1,0.08-0.16,0.1c-0.07,0.02-0.14,0.03-0.21,0.02c-0.07-0.01-0.13-0.04-0.18-0.08
		c0,0.09-0.03,0.16-0.08,0.22c-0.05,0.06-0.12,0.11-0.21,0.14c-0.07,0.02-0.14,0.03-0.21,0.03c-0.07,0-0.14-0.02-0.19-0.06
		c-0.05-0.03-0.1-0.08-0.13-0.15c-0.02-0.04-0.06-0.14-0.12-0.3l-0.15-0.43L28.11,61.25L28.11,61.25z M27.95,61.59l-0.35,0.12
		l0.06,0.17c0.03,0.1,0.06,0.16,0.07,0.18c0.02,0.04,0.05,0.07,0.09,0.08c0.04,0.01,0.08,0.01,0.13,0c0.05-0.02,0.08-0.04,0.1-0.07
		c0.02-0.03,0.03-0.07,0.02-0.11c-0.01-0.03-0.03-0.1-0.07-0.22L27.95,61.59L27.95,61.59z M27.36,61.8l-0.4,0.14l0.08,0.24
		c0.03,0.09,0.06,0.15,0.07,0.17c0.02,0.04,0.05,0.06,0.09,0.07c0.04,0.01,0.09,0.01,0.14-0.01c0.05-0.02,0.08-0.04,0.11-0.07
		c0.03-0.03,0.04-0.06,0.04-0.1c0-0.04-0.02-0.12-0.06-0.23L27.36,61.8L27.36,61.8z M27.7,64.58l-0.12-0.27l0.28-0.25l-0.22-0.49
		l-0.38,0.05l-0.12-0.26l1.66-0.18l0.12,0.26L27.7,64.58L27.7,64.58z M28.07,63.86l0.46-0.41l-0.61,0.08L28.07,63.86L28.07,63.86z
		 M28.04,65.25l1.18-0.59l-0.18-0.35l0.24-0.12l0.48,0.95l-0.24,0.12l-0.18-0.35l-1.18,0.59L28.04,65.25L28.04,65.25z M29.26,67.27
		l-0.16-0.25l0.24-0.29l-0.29-0.45l-0.37,0.1l-0.15-0.24l1.62-0.42l0.15,0.24L29.26,67.27L29.26,67.27z M29.53,66.51l0.4-0.47
		l-0.59,0.16L29.53,66.51L29.53,66.51z M29.64,67.73l1.25-0.98l0.16,0.21l-0.5,1.09l0.84-0.66l0.16,0.2l-1.25,0.98l-0.17-0.21
		l0.48-1.07l-0.82,0.65L29.64,67.73L29.64,67.73z M31.64,69.13l0.19-0.19l0.42,0.4l-0.44,0.46c-0.09,0.01-0.19-0.01-0.3-0.05
		c-0.11-0.04-0.21-0.1-0.29-0.17c-0.1-0.1-0.17-0.21-0.19-0.33C31,69.12,31.02,69,31.07,68.87c0.05-0.13,0.13-0.25,0.24-0.36
		c0.11-0.12,0.24-0.21,0.37-0.26c0.13-0.05,0.26-0.06,0.39-0.04c0.1,0.02,0.19,0.08,0.29,0.16c0.12,0.12,0.19,0.24,0.2,0.36
		c0.01,0.12-0.03,0.25-0.11,0.37l-0.24-0.14c0.04-0.07,0.06-0.14,0.05-0.21c-0.01-0.07-0.04-0.13-0.09-0.18
		c-0.09-0.08-0.18-0.11-0.3-0.1c-0.11,0.02-0.23,0.09-0.35,0.21c-0.13,0.14-0.2,0.26-0.22,0.38c-0.01,0.12,0.02,0.22,0.1,0.29
		c0.04,0.04,0.09,0.07,0.15,0.09c0.06,0.02,0.12,0.03,0.17,0.03l0.14-0.15L31.64,69.13L31.64,69.13z M32.17,70.43l0.98-1.25
		l0.21,0.17l-0.38,0.49l0.42,0.32l0.38-0.49l0.21,0.17l-0.98,1.25l-0.21-0.17l0.43-0.55l-0.42-0.32l-0.43,0.55L32.17,70.43
		L32.17,70.43z M34.61,72.18l-0.25-0.16l0.1-0.37l-0.45-0.29l-0.29,0.24l-0.24-0.16l1.3-1.05l0.24,0.16L34.61,72.18z M34.54,71.38
		l0.16-0.6l-0.47,0.4L34.54,71.38L34.54,71.38z M35.13,72.48l0.72-1.42l0.51,0.26c0.13,0.06,0.21,0.12,0.26,0.18
		c0.05,0.05,0.07,0.12,0.07,0.21c0,0.08-0.02,0.17-0.06,0.25c-0.05,0.11-0.12,0.18-0.21,0.22c-0.09,0.04-0.19,0.05-0.3,0.01
		c0.03,0.06,0.06,0.12,0.07,0.18c0.01,0.06,0.02,0.16,0.02,0.3l0.01,0.35l-0.29-0.15l-0.02-0.4c-0.01-0.14-0.01-0.23-0.02-0.27
		c-0.01-0.04-0.02-0.07-0.04-0.1s-0.06-0.05-0.11-0.08l-0.05-0.02l-0.3,0.59L35.13,72.48L35.13,72.48z M35.78,71.78l0.18,0.09
		c0.12,0.06,0.19,0.09,0.23,0.09c0.03,0,0.07-0.01,0.1-0.03c0.03-0.02,0.06-0.05,0.08-0.09c0.02-0.05,0.03-0.09,0.03-0.13
		c-0.01-0.04-0.03-0.07-0.06-0.1c-0.02-0.01-0.08-0.04-0.17-0.09l-0.19-0.1L35.78,71.78L35.78,71.78z M36.74,73.25l0.59-1.48
		l0.25,0.1l-0.59,1.48L36.74,73.25z M40.29,73.91l0.05-0.3l0.5,0.09l-0.05,0.3L40.29,73.91z M44,74.68l-0.05-1.58l0.27-0.01
		l0.04,1.31l0.67-0.02l0.01,0.27L44,74.68L44,74.68z M46.78,74.44l-0.29,0.04l-0.16-0.34l-0.53,0.07l-0.07,0.37l-0.29,0.03
		l0.32-1.64l0.28-0.03L46.78,74.44L46.78,74.44z M46.21,73.87l-0.26-0.56l-0.11,0.61L46.21,73.87z M47.35,74.31L47,72.76l0.4-0.09
		l0.48,1l-0.01-1.11l0.4-0.09l0.36,1.55l-0.24,0.06l-0.28-1.22l0.02,1.28l-0.25,0.06l-0.54-1.16l0.28,1.22L47.35,74.31L47.35,74.31z
		 M49.3,73.79l-0.52-1.5l0.41-0.14c0.16-0.05,0.26-0.08,0.31-0.08c0.08,0,0.16,0.03,0.23,0.08c0.08,0.06,0.13,0.15,0.18,0.27
		c0.03,0.09,0.04,0.17,0.04,0.25c-0.01,0.07-0.03,0.13-0.06,0.19c-0.03,0.05-0.07,0.09-0.11,0.12c-0.06,0.04-0.14,0.07-0.26,0.11
		l-0.17,0.06l0.2,0.57L49.3,73.79L49.3,73.79z M49.12,72.45l0.15,0.43l0.14-0.05c0.1-0.03,0.16-0.07,0.19-0.09
		c0.03-0.03,0.05-0.06,0.05-0.1c0.01-0.04,0-0.08-0.01-0.13c-0.02-0.05-0.05-0.1-0.09-0.12c-0.04-0.03-0.08-0.04-0.13-0.03
		c-0.03,0-0.09,0.02-0.19,0.05L49.12,72.45L49.12,72.45z M50.22,71.73l0.25-0.11l0.36,0.78c0.06,0.12,0.1,0.2,0.12,0.24
		c0.04,0.05,0.08,0.09,0.14,0.11c0.06,0.02,0.12,0.01,0.19-0.02c0.07-0.03,0.11-0.07,0.13-0.12c0.02-0.05,0.02-0.1,0.01-0.15
		c-0.02-0.05-0.05-0.14-0.1-0.25l-0.36-0.8l0.25-0.11l0.34,0.76c0.08,0.17,0.13,0.3,0.15,0.38c0.02,0.08,0.02,0.15,0.01,0.22
		c-0.01,0.07-0.04,0.13-0.09,0.18c-0.05,0.06-0.12,0.11-0.21,0.15c-0.12,0.05-0.21,0.08-0.29,0.07c-0.07,0-0.14-0.03-0.2-0.06
		c-0.06-0.04-0.11-0.08-0.14-0.13c-0.05-0.08-0.12-0.19-0.19-0.36L50.22,71.73L50.22,71.73z M52.5,72.4l-0.85-1.34l0.22-0.14
		l1.04,0.6l-0.57-0.9l0.21-0.13l0.85,1.34l-0.23,0.15l-1.02-0.59l0.56,0.88L52.5,72.4L52.5,72.4z M54.15,70.58l-0.17-0.21l0.46-0.36
		l0.39,0.5c0,0.09-0.03,0.18-0.09,0.29c-0.05,0.11-0.12,0.19-0.21,0.26c-0.11,0.09-0.23,0.13-0.35,0.14
		c-0.13,0.01-0.25-0.02-0.37-0.09c-0.12-0.07-0.23-0.16-0.32-0.28c-0.1-0.13-0.17-0.26-0.2-0.4c-0.03-0.14-0.03-0.27,0.02-0.39
		c0.03-0.09,0.1-0.18,0.2-0.26c0.13-0.1,0.26-0.15,0.38-0.14c0.12,0.01,0.24,0.06,0.35,0.16L54.07,70c-0.06-0.05-0.13-0.08-0.2-0.08
		c-0.07,0-0.13,0.02-0.2,0.07c-0.09,0.07-0.14,0.17-0.14,0.28c0,0.11,0.05,0.24,0.16,0.38c0.12,0.15,0.23,0.24,0.35,0.27
		c0.11,0.03,0.22,0.01,0.31-0.06c0.04-0.03,0.08-0.08,0.11-0.14c0.03-0.06,0.05-0.11,0.06-0.17l-0.12-0.16L54.15,70.58L54.15,70.58z
		 M57.57,68.06l-1.04-0.81l-0.24,0.31l-0.21-0.16l0.65-0.84l0.21,0.16l-0.24,0.31l1.04,0.81L57.57,68.06z M58.33,67.03l-1.29-0.92
		l0.16-0.22l1.29,0.92L58.33,67.03z M58.88,66.23l-1.38-0.79l0.2-0.35l1.06,0.33l-0.82-0.75l0.2-0.35l1.38,0.79l-0.13,0.22
		l-1.08-0.62l0.95,0.85l-0.13,0.23l-1.22-0.4L59,66.01L58.88,66.23L58.88,66.23z M58.37,63.8l0.11-0.25l0.79,0.35
		c0.12,0.06,0.21,0.09,0.25,0.1c0.06,0.02,0.12,0.01,0.18-0.01c0.05-0.02,0.1-0.07,0.13-0.14c0.03-0.07,0.04-0.13,0.02-0.18
		c-0.02-0.05-0.05-0.09-0.1-0.12c-0.05-0.03-0.13-0.07-0.24-0.12l-0.8-0.36l0.11-0.25l0.76,0.34c0.17,0.08,0.29,0.14,0.36,0.19
		c0.07,0.05,0.12,0.1,0.15,0.16c0.03,0.06,0.05,0.12,0.05,0.2c0,0.07-0.02,0.16-0.06,0.25c-0.05,0.12-0.11,0.2-0.17,0.24
		c-0.06,0.05-0.12,0.07-0.19,0.09c-0.07,0.01-0.13,0.01-0.19,0c-0.09-0.02-0.22-0.07-0.38-0.14L58.37,63.8L58.37,63.8z M60.51,62.79
		L59,62.28l0.18-0.54c0.05-0.14,0.09-0.23,0.14-0.28c0.05-0.05,0.11-0.09,0.19-0.1c0.08-0.01,0.17-0.01,0.26,0.02
		c0.11,0.04,0.2,0.1,0.25,0.18s0.07,0.18,0.06,0.3c0.06-0.04,0.11-0.07,0.17-0.09c0.06-0.02,0.16-0.04,0.29-0.06l0.35-0.06
		l-0.1,0.31l-0.39,0.07c-0.14,0.03-0.23,0.05-0.27,0.06c-0.04,0.01-0.07,0.03-0.09,0.06c-0.02,0.02-0.04,0.07-0.06,0.12l-0.02,0.05
		l0.63,0.21L60.51,62.79L60.51,62.79z M59.72,62.24l0.06-0.19c0.04-0.12,0.06-0.2,0.06-0.24c0-0.03-0.02-0.07-0.04-0.09
		c-0.02-0.03-0.06-0.05-0.1-0.06c-0.05-0.02-0.1-0.02-0.13-0.01c-0.04,0.01-0.07,0.04-0.09,0.08c-0.01,0.02-0.03,0.08-0.07,0.19
		l-0.07,0.2L59.72,62.24L59.72,62.24z"/>
	<circle class="st2" cx="43.73" cy="56.91" r="16.18"/>
	<text transform="matrix(0.1736 -0.9848 0.9848 0.1736 27.6429 54.9952)" class="st3 st5 st6">S</text>
	<text transform="matrix(0.1736 -0.9848 0.9848 0.1736 27.6429 54.9952)" class="st7 st5 st6">S</text>
	<text transform="matrix(0.2756 -0.9613 0.9613 0.2756 27.9268 53.3526)" class="st3 st5 st6">M</text>
	<text transform="matrix(0.2756 -0.9613 0.9613 0.2756 27.9268 53.3526)" class="st7 st5 st6">M</text>
	<text transform="matrix(0.3746 -0.9272 0.9272 0.3746 28.5156 51.406)" class="st3 st5 st6">P</text>
	<text transform="matrix(0.3746 -0.9272 0.9272 0.3746 28.5156 51.406)" class="st7 st5 st6">P</text>
	<text transform="matrix(0.454 -0.891 0.891 0.454 29.0614 50.0734)" class="st3 st5 st6"> </text>
	<text transform="matrix(0.454 -0.891 0.891 0.454 29.0614 50.0734)" class="st7 st5 st6"> </text>
	<text transform="matrix(0.454 -0.891 0.891 0.454 29.3432 49.5248)" class="st3 st5 st6"> </text>
	<text transform="matrix(0.454 -0.891 0.891 0.454 29.3432 49.5248)" class="st7 st5 st6"> </text>
	<text transform="matrix(0.5 -0.866 0.866 0.5 29.6357 48.981)" class="st3 st5 st6"> </text>
	<text transform="matrix(0.5 -0.866 0.866 0.5 29.6357 48.981)" class="st7 st5 st6"> </text>
	<text transform="matrix(0.5446 -0.8387 0.8387 0.5446 29.9444 48.4468)" class="st3 st5 st6"> </text>
	<text transform="matrix(0.5446 -0.8387 0.8387 0.5446 29.9444 48.4468)" class="st7 st5 st6"> </text>
	<text transform="matrix(0.5736 -0.8192 0.8192 0.5736 30.2751 47.9269)" class="st3 st5 st6"> </text>
	<text transform="matrix(0.5736 -0.8192 0.8192 0.5736 30.2751 47.9269)" class="st7 st5 st6"> </text>
	<text transform="matrix(0.6157 -0.788 0.788 0.6157 30.6445 47.3938)" class="st3 st5 st6">M</text>
	<text transform="matrix(0.6157 -0.788 0.788 0.6157 30.6445 47.3938)" class="st7 st5 st6">M</text>
	<text transform="matrix(0.7193 -0.6947 0.6947 0.7193 31.9331 45.8188)" class="st3 st5 st6">U</text>
	<text transform="matrix(0.7193 -0.6947 0.6947 0.7193 31.9331 45.8188)" class="st7 st5 st6">U</text>
	<text transform="matrix(0.788 -0.6157 0.6157 0.788 33.2351 44.5925)" class="st3 st5 st6">H</text>
	<text transform="matrix(0.788 -0.6157 0.6157 0.788 33.2351 44.5925)" class="st7 st5 st6">H</text>
	<text transform="matrix(0.8387 -0.5446 0.5446 0.8387 34.6614 43.5148)" class="st3 st5 st6">A</text>
	<text transform="matrix(0.8387 -0.5446 0.5446 0.8387 34.6614 43.5148)" class="st7 st5 st6">A</text>
	<text transform="matrix(0.9135 -0.4067 0.4067 0.9135 36.1844 42.5731)" class="st3 st5 st6">M</text>
	<text transform="matrix(0.9135 -0.4067 0.4067 0.9135 36.1844 42.5731)" class="st7 st5 st6">M</text>
	<text transform="matrix(0.9613 -0.2756 0.2756 0.9613 38.0346 41.7154)" class="st3 st5 st6">M</text>
	<text transform="matrix(0.9613 -0.2756 0.2756 0.9613 38.0346 41.7154)" class="st7 st5 st6">M</text>
	<text transform="matrix(0.9848 -0.1736 0.1736 0.9848 39.9894 41.15)" class="st3 st5 st6">A</text>
	<text transform="matrix(0.9848 -0.1736 0.1736 0.9848 39.9894 41.15)" class="st7 st5 st6">A</text>
	<text transform="matrix(0.9976 -0.0698 0.0698 0.9976 41.755 40.8454)" class="st3 st5 st6">D</text>
	<text transform="matrix(0.9976 -0.0698 0.0698 0.9976 41.755 40.8454)" class="st7 st5 st6">D</text>
	<text transform="matrix(0.9998 0.0175 -0.0175 0.9998 43.5383 40.7327)" class="st3 st5 st6">I</text>
	<text transform="matrix(0.9998 0.0175 -0.0175 0.9998 43.5383 40.7327)" class="st7 st5 st6">I</text>
	<text transform="matrix(0.9976 0.0698 -0.0698 0.9976 44.342 40.7414)" class="st3 st5 st6">Y</text>
	<text transform="matrix(0.9976 0.0698 -0.0698 0.9976 44.342 40.7414)" class="st7 st5 st6">Y</text>
	<text transform="matrix(0.9848 0.1736 -0.1736 0.9848 45.7967 40.8506)" class="st3 st5 st6">A</text>
	<text transform="matrix(0.9848 0.1736 -0.1736 0.9848 45.7967 40.8506)" class="st7 st5 st6">A</text>
	<text transform="matrix(0.9613 0.2756 -0.2756 0.9613 47.5562 41.1834)" class="st3 st5 st6">H</text>
	<text transform="matrix(0.9613 0.2756 -0.2756 0.9613 47.5562 41.1834)" class="st7 st5 st6">H</text>
	<text transform="matrix(0.9272 0.3746 -0.3746 0.9272 49.0947 41.6392)" class="st3 st5 st6"> </text>
	<text transform="matrix(0.9272 0.3746 -0.3746 0.9272 49.0947 41.6392)" class="st7 st5 st6"> </text>
	<text transform="matrix(0.9272 0.3746 -0.3746 0.9272 49.6679 41.8655)" class="st3 st5 st6"> </text>
	<text transform="matrix(0.9272 0.3746 -0.3746 0.9272 49.6679 41.8655)" class="st7 st5 st6"> </text>
	<text transform="matrix(0.9135 0.4067 -0.4067 0.9135 50.2376 42.102)" class="st3 st5 st6"> </text>
	<text transform="matrix(0.9135 0.4067 -0.4067 0.9135 50.2376 42.102)" class="st7 st5 st6"> </text>
	<text transform="matrix(0.891 0.454 -0.454 0.891 50.7978 42.3596)" class="st3 st5 st6"> </text>
	<text transform="matrix(0.891 0.454 -0.454 0.891 50.7978 42.3596)" class="st7 st5 st6"> </text>
	<text transform="matrix(0.866 0.5 -0.5 0.866 51.3485 42.6349)" class="st3 st5 st6"> </text>
	<text transform="matrix(0.866 0.5 -0.5 0.866 51.3485 42.6349)" class="st7 st5 st6"> </text>
	<text transform="matrix(0.866 0.5 -0.5 0.866 51.8835 42.9426)" class="st3 st5 st6"> </text>
	<text transform="matrix(0.866 0.5 -0.5 0.866 51.8835 42.9426)" class="st7 st5 st6"> </text>
	<text transform="matrix(0.8192 0.5736 -0.5736 0.8192 52.3793 43.2172)" class="st3 st5 st6">A</text>
	<text transform="matrix(0.8192 0.5736 -0.5736 0.8192 52.3793 43.2172)" class="st7 st5 st6">A</text>
	<text transform="matrix(0.7547 0.6561 -0.6561 0.7547 53.8306 44.2643)" class="st3 st5 st6">L</text>
	<text transform="matrix(0.7547 0.6561 -0.6561 0.7547 53.8306 44.2643)" class="st7 st5 st6">L</text>
	<text transform="matrix(0.6947 0.7193 -0.7193 0.6947 54.9873 45.2823)" class="st3 st5 st6">-</text>
	<text transform="matrix(0.6947 0.7193 -0.7193 0.6947 54.9873 45.2823)" class="st7 st5 st6">-</text>
	<text transform="matrix(0.6561 0.7547 -0.7547 0.6561 55.6294 45.9485)" class="st3 st5 st6">G</text>
	<text transform="matrix(0.6561 0.7547 -0.7547 0.6561 55.6294 45.9485)" class="st7 st5 st6">G</text>
	<text transform="matrix(0.5446 0.8387 -0.8387 0.5446 56.855 47.4149)" class="st3 st5 st6">H</text>
	<text transform="matrix(0.5446 0.8387 -0.8387 0.5446 56.855 47.4149)" class="st7 st5 st6">H</text>
	<text transform="matrix(0.5 0.866 -0.866 0.5 57.8024 48.9345)" class="st3 st5 st6">I</text>
	<text transform="matrix(0.5 0.866 -0.866 0.5 57.8024 48.9345)" class="st7 st5 st6">I</text>
	<text transform="matrix(0.4067 0.9135 -0.9135 0.4067 58.1931 49.6331)" class="st3 st5 st6">F</text>
	<text transform="matrix(0.4067 0.9135 -0.9135 0.4067 58.1931 49.6331)" class="st7 st5 st6">F</text>
	<text transform="matrix(0.3256 0.9455 -0.9455 0.3256 58.7828 50.9248)" class="st3 st5 st6">A</text>
	<text transform="matrix(0.3256 0.9455 -0.9455 0.3256 58.7828 50.9248)" class="st7 st5 st6">A</text>
	<text transform="matrix(0.225 0.9744 -0.9744 0.225 59.343 52.6245)" class="st3 st5 st6">R</text>
	<text transform="matrix(0.225 0.9744 -0.9744 0.225 59.343 52.6245)" class="st7 st5 st6">R</text>
	<text transform="matrix(0.1219 0.9925 -0.9925 0.1219 59.7129 54.3722)" class="st3 st5 st6">I</text>
	<text transform="matrix(0.1219 0.9925 -0.9925 0.1219 59.7129 54.3722)" class="st7 st5 st6">I</text>
	<circle class="st8" cx="43.73" cy="56.91" r="15.78"/>
	<rect x="33.96" y="47.15" class="st1" width="19.53" height="19.53"/>
	
		<rect x="33.96" y="47.15" transform="matrix(0.7071 -0.7071 0.7071 0.7071 -27.4371 47.5924)" class="st1" width="19.53" height="19.53"/>
	<rect x="34.9" y="48.09" class="st9" width="17.65" height="17.65"/>
	
		<rect x="34.9" y="48.09" transform="matrix(0.7071 -0.7071 0.7071 0.7071 -27.4371 47.5924)" class="st9" width="17.65" height="17.65"/>
	<rect x="34.49" y="47.68" class="st0" width="18.48" height="18.48"/>
	
		<rect x="34.49" y="47.68" transform="matrix(0.7071 -0.7071 0.7071 0.7071 -27.4371 47.5924)" class="st0" width="18.48" height="18.48"/>
	<path class="st10" d="M43.73,47.79c5.03,0,9.11,4.08,9.11,9.11c0,5.03-4.08,9.11-9.11,9.11c-5.03,0-9.11-4.08-9.11-9.11
		C34.61,51.87,38.69,47.79,43.73,47.79L43.73,47.79z M43.73,50.47c3.55,0,6.43,2.88,6.43,6.43c0,3.55-2.88,6.43-6.43,6.43
		s-6.43-2.88-6.43-6.43C37.29,53.35,40.17,50.47,43.73,50.47L43.73,50.47z"/>
	<path class="st11" d="M43.73,47.79c5.03,0,9.11,4.08,9.11,9.11v0h-2.68v0c0-3.55-2.88-6.43-6.43-6.43s-6.43,2.88-6.43,6.43v0h-2.68
		v0C34.61,51.87,38.69,47.79,43.73,47.79L43.73,47.79z"/>
	<circle class="st2" cx="43.73" cy="56.91" r="6.43"/>
	<path class="st12" d="M36.72,54.76l-0.04,0.16c-0.01,0.05-0.07,0.09-0.17,0.11c-0.07,0.01-0.17,0.02-0.28,0.01
		c0.04,0.03,0.06,0.07,0.08,0.11c0.01,0.04,0.02,0.08,0.01,0.11c-0.02,0.08-0.04,0.15-0.07,0.21c-0.02,0.05-0.05,0.08-0.06,0.07
		c-0.06-0.01-0.12-0.07-0.18-0.17c-0.06-0.1-0.1-0.22-0.13-0.35c-0.01,0-0.02,0-0.05,0c-0.03,0-0.04,0-0.05,0
		c-0.03-0.01-0.05-0.02-0.08-0.05c-0.02-0.02-0.04-0.04-0.06-0.07c0.05,0,0.09,0.01,0.14,0.01c0.04,0,0.09,0,0.14,0l0.2,0.01
		c0.11,0.01,0.19,0.01,0.24,0c0.08-0.01,0.13-0.02,0.13-0.04l0.04-0.16L36.72,54.76L36.72,54.76z M36.14,55.03l-0.12-0.01
		c0.01,0.07,0.02,0.12,0.04,0.17c0.02,0.04,0.04,0.08,0.08,0.11c0.01-0.01,0.02-0.03,0.03-0.05c0.01-0.02,0.02-0.05,0.03-0.08
		C36.19,55.13,36.18,55.08,36.14,55.03L36.14,55.03z M35.33,54.74l0.14,0.12l-0.13,0.16l-0.14-0.12L35.33,54.74L35.33,54.74z
		 M35.38,55.01l0.14,0.12l-0.14,0.16l-0.14-0.12L35.38,55.01L35.38,55.01z M36.93,54.2l-0.21,0.61l-0.19-0.06l0.18-0.53
		c-0.08-0.03-0.15-0.04-0.2-0.03c-0.04,0-0.09,0.02-0.17,0.06l-0.15-0.14c0.08-0.03,0.14-0.04,0.18-0.04c0.06,0,0.16,0.02,0.28,0.06
		L36.93,54.2L36.93,54.2z M37.13,54.28l0.13,0.13l-0.15,0.14l-0.13-0.13L37.13,54.28L37.13,54.28z M37.15,54.55l0.13,0.13
		l-0.15,0.14L37,54.7L37.15,54.55L37.15,54.55z M37.32,53.33l-0.05,0.11c-0.02,0.05-0.05,0.09-0.1,0.14
		c-0.05,0.06-0.11,0.1-0.18,0.13c0.03,0.06,0.05,0.12,0.05,0.17c0,0.05-0.02,0.12-0.05,0.2l-0.07,0.16l-0.18-0.08L36.8,54
		c0.03-0.06,0.04-0.13,0.03-0.19c-0.01-0.05-0.03-0.1-0.06-0.15c-0.04-0.07-0.07-0.15-0.09-0.23c-0.02-0.07-0.02-0.13-0.01-0.19
		c0.09-0.01,0.18-0.02,0.25-0.03c0.1,0,0.17,0.01,0.22,0.03L37.32,53.33L37.32,53.33z M37.06,53.36c-0.04-0.01-0.09-0.01-0.14-0.01
		c-0.04,0-0.08,0.01-0.13,0.02c-0.01,0.04,0,0.07,0.01,0.1c0.01,0.02,0.02,0.05,0.05,0.09c0.04-0.01,0.08-0.04,0.12-0.07
		c0.04-0.03,0.07-0.07,0.1-0.11L37.06,53.36L37.06,53.36z M37.4,52.17c0.01,0.01,0.02,0.02,0.03,0.02c0.01,0.01,0.02,0.02,0.03,0.03
		c-0.1-0.02-0.22-0.03-0.35-0.02c-0.14,0.01-0.23,0.04-0.26,0.08c-0.01,0.01-0.01,0.02,0,0.04c0.01,0.02,0.01,0.04,0,0.05
		c-0.01,0.02-0.04,0.03-0.09,0.06c-0.06,0.03-0.12,0.04-0.17,0.04c-0.07,0-0.14-0.02-0.19-0.06c-0.04-0.03-0.05-0.05-0.03-0.08
		c0.03-0.04,0.11-0.09,0.23-0.15c0.14-0.06,0.27-0.1,0.41-0.11C37.17,52.08,37.3,52.1,37.4,52.17L37.4,52.17z M38.15,52.14
		l-0.04,0.06c-0.04,0.05-0.09,0.07-0.17,0.07c-0.09-0.01-0.21-0.06-0.35-0.16c-0.01-0.01-0.02-0.02-0.04-0.02
		c-0.02-0.01-0.03-0.02-0.03-0.02c0.12,0.18,0.2,0.31,0.22,0.4c0.03,0.1,0.02,0.22-0.02,0.33c-0.04,0.1-0.13,0.25-0.28,0.45
		l-0.03-0.02c0.07-0.2,0.11-0.35,0.13-0.46c0.04-0.17,0.04-0.32,0.01-0.44c-0.03-0.15-0.11-0.26-0.23-0.35
		c-0.06-0.04-0.12-0.08-0.18-0.11c-0.06-0.03-0.12-0.06-0.18-0.08l-0.06-0.09c-0.02-0.03-0.04-0.06-0.05-0.09
		c0.1,0.05,0.21,0.1,0.32,0.16c0.08,0.04,0.16,0.09,0.25,0.13c0.11,0.06,0.19,0.11,0.26,0.14c0.09,0.04,0.15,0.07,0.2,0.07
		c0.03,0,0.05-0.01,0.06-0.02l0.04-0.06L38.15,52.14L38.15,52.14z M39.08,51.24l-0.06,0.06c-0.03,0.03-0.07,0.06-0.1,0.07
		c-0.03,0.01-0.07,0.02-0.11,0.03c-0.01,0.04-0.02,0.08-0.03,0.1c-0.02,0.04-0.05,0.08-0.1,0.12l-0.05,0.05
		c-0.03,0.03-0.06,0.05-0.1,0.07c-0.03,0.01-0.06,0.02-0.1,0.03c-0.01,0.04-0.02,0.08-0.03,0.11c-0.01,0.03-0.05,0.07-0.1,0.11
		l-0.16,0.15L38,52l0.16-0.15c0.04-0.04,0.07-0.08,0.08-0.1c0.02-0.04,0.01-0.08-0.02-0.12c-0.02-0.02-0.03-0.03-0.05-0.04
		c-0.02-0.01-0.04-0.03-0.06-0.04l-0.01-0.08c0.06,0.04,0.11,0.06,0.14,0.07c0.06,0.02,0.1,0.03,0.14,0.03
		c0.05,0,0.09-0.02,0.13-0.05l0.06-0.05c0.04-0.04,0.07-0.07,0.07-0.11c0.01-0.03,0-0.07-0.03-0.1c-0.02-0.02-0.03-0.03-0.05-0.05
		c-0.02-0.01-0.04-0.03-0.06-0.04l-0.01-0.08l0.09,0.06c0.07,0.05,0.13,0.07,0.17,0.07c0.04,0,0.07-0.01,0.11-0.04
		c0.01-0.01,0.02-0.03,0.02-0.05c0-0.02-0.01-0.03-0.02-0.05c-0.03-0.03-0.07-0.05-0.13-0.07c-0.01,0-0.04-0.01-0.09-0.02
		l-0.03-0.14c0.05,0.01,0.1,0.03,0.13,0.04c0.05,0.03,0.1,0.07,0.16,0.13L39.08,51.24L39.08,51.24z M39.46,49.54l0.07,0.2
		l-0.07,0.01l0.06,0.09c0.05,0.08,0.1,0.17,0.13,0.27c0.03,0.1,0.05,0.21,0.06,0.33c0.05,0.03,0.09,0.05,0.12,0.07
		c0.04,0.03,0.07,0.07,0.1,0.11c0.02,0.02,0.03,0.04,0.04,0.06c0.01,0.02,0.02,0.04,0.03,0.06c-0.06,0.06-0.12,0.12-0.19,0.17
		c-0.07,0.06-0.14,0.11-0.21,0.16c-0.01-0.01-0.01-0.02-0.02-0.03c-0.03-0.05-0.05-0.1-0.06-0.15c0.07-0.13,0.11-0.26,0.13-0.4
		c-0.1-0.06-0.17-0.09-0.21-0.12c-0.05-0.02-0.12-0.06-0.23-0.1c-0.04-0.01-0.07-0.03-0.09-0.03c-0.03-0.01-0.06-0.01-0.07,0
		c-0.01,0.01-0.02,0.02-0.03,0.04c-0.01,0.01-0.01,0.02-0.02,0.02c-0.01,0.01-0.04,0.01-0.09,0c-0.04-0.01-0.09-0.02-0.14-0.04
		c-0.04-0.01-0.07-0.03-0.09-0.04c-0.02-0.01-0.04-0.03-0.06-0.06c-0.03-0.04-0.04-0.07-0.05-0.1c-0.01-0.04-0.01-0.06,0.01-0.08
		c0.03-0.02,0.08-0.02,0.16,0c0.07,0.02,0.16,0.04,0.26,0.08c0.09,0.03,0.18,0.07,0.27,0.12l0.2,0.09c0.06,0.03,0.12,0.06,0.19,0.1
		c-0.01-0.11-0.04-0.22-0.08-0.32c-0.04-0.09-0.09-0.19-0.17-0.3l-0.07,0c-0.03-0.04-0.05-0.08-0.06-0.12
		c-0.01-0.04-0.02-0.08-0.03-0.11l0.03-0.01c0.02,0.03,0.05,0.04,0.09,0.04c0.02,0,0.05,0,0.08-0.01
		C39.42,49.54,39.44,49.54,39.46,49.54L39.46,49.54z M39.81,50.62c-0.01-0.01-0.02-0.03-0.04-0.04c-0.01-0.01-0.04-0.03-0.08-0.05
		c0,0.04-0.01,0.08-0.03,0.14c-0.02,0.06-0.04,0.11-0.06,0.15c0.07-0.05,0.13-0.08,0.15-0.11C39.8,50.68,39.82,50.64,39.81,50.62z
		 M39.95,51.16c0.01,0.02,0.01,0.04,0,0.06c-0.01,0.02-0.02,0.04-0.04,0.07l-0.14,0.18c-0.02-0.03,0-0.08,0.05-0.14
		c-0.03,0-0.05,0-0.06,0c-0.02,0-0.04-0.01-0.04-0.03c-0.01-0.02-0.01-0.06,0-0.12c0.01-0.06,0.03-0.1,0.06-0.12
		c0.01-0.01,0.03-0.01,0.04-0.01c0.01,0,0.03,0.01,0.04,0.03c0.01,0.01,0.01,0.02,0.01,0.03c0,0.01,0,0.03,0,0.04
		c-0.03,0-0.06,0-0.08,0.02c-0.01,0.01-0.03,0.02-0.04,0.04c-0.01,0.01-0.01,0.03-0.01,0.03c0.01,0.01,0.03,0.01,0.07,0.01
		c0.04,0,0.07-0.01,0.09-0.02c0.01-0.01,0.02-0.02,0.03-0.02C39.92,51.19,39.93,51.18,39.95,51.16L39.95,51.16z M40.42,50.06
		c0.03,0.05,0.04,0.11,0.05,0.17c0,0.03,0,0.09,0,0.16l-0.02,0c-0.01-0.02-0.02-0.04-0.03-0.07c-0.01-0.03-0.02-0.04-0.02-0.05
		c-0.04-0.07-0.09-0.16-0.17-0.28c-0.08-0.12-0.15-0.24-0.24-0.37c-0.05-0.08-0.1-0.16-0.16-0.24c0-0.04,0-0.08,0-0.12
		c0-0.04,0-0.08,0-0.12c0.05,0.07,0.12,0.17,0.2,0.29c0.08,0.12,0.16,0.24,0.22,0.34C40.33,49.89,40.39,49.99,40.42,50.06
		L40.42,50.06z M43.54,49.59l-0.16,0.01c-0.05,0-0.11-0.04-0.15-0.13c-0.04-0.07-0.07-0.15-0.09-0.26c-0.02,0.04-0.05,0.08-0.08,0.1
		c-0.03,0.03-0.07,0.04-0.11,0.04c-0.09,0.01-0.16,0.01-0.22,0c-0.06-0.01-0.09-0.02-0.09-0.04c0-0.06,0.03-0.14,0.11-0.22
		c0.08-0.08,0.18-0.16,0.3-0.23c0-0.01-0.01-0.02-0.01-0.05c-0.01-0.03-0.01-0.04-0.01-0.05c0-0.03,0-0.05,0.02-0.09
		c0.01-0.03,0.03-0.05,0.05-0.08c0.01,0.05,0.02,0.09,0.03,0.13c0.01,0.04,0.02,0.09,0.04,0.13l0.05,0.19
		c0.03,0.11,0.05,0.18,0.07,0.23c0.03,0.08,0.06,0.11,0.08,0.11l0.16-0.01L43.54,49.59L43.54,49.59z M43.11,49.12L43.07,49
		c-0.06,0.03-0.11,0.06-0.15,0.08c-0.04,0.03-0.06,0.06-0.09,0.11c0.02,0.01,0.03,0.01,0.06,0.01c0.02,0,0.05,0,0.09,0
		C43.03,49.19,43.07,49.17,43.11,49.12L43.11,49.12z M43.15,48.26l-0.07,0.17l-0.19-0.08l0.07-0.17L43.15,48.26L43.15,48.26z
		 M42.9,48.38l-0.07,0.17l-0.19-0.08l0.07-0.17L42.9,48.38z M44.14,49.61l-0.64-0.02l0.01-0.2l0.56,0.02c0-0.09-0.01-0.16-0.03-0.2
		c-0.01-0.03-0.05-0.08-0.1-0.14l0.09-0.18c0.05,0.07,0.08,0.12,0.1,0.16c0.02,0.06,0.03,0.15,0.02,0.29L44.14,49.61L44.14,49.61z
		 M44.12,49.83l-0.09,0.16l-0.18-0.1l0.09-0.16L44.12,49.83z M43.86,49.92l-0.09,0.16l-0.18-0.1l0.09-0.16L43.86,49.92z
		 M44.95,49.69l-0.5-0.06c-0.04-0.01-0.08-0.02-0.11-0.05c-0.03-0.03-0.04-0.06-0.04-0.09c0-0.03,0.01-0.05,0.01-0.08
		c0.01-0.02,0.01-0.05,0.03-0.07l0.02,0c0,0.03,0.02,0.06,0.04,0.07c0.02,0.01,0.04,0.02,0.07,0.03l0.44,0.05
		c0.02-0.13,0.01-0.24-0.02-0.33c-0.03-0.11-0.1-0.18-0.21-0.23l0.04-0.22c0.12,0.08,0.2,0.19,0.24,0.34
		c0.03,0.12,0.03,0.27,0.01,0.45L44.95,49.69L44.95,49.69z M45.87,49.9l-0.11-0.03c-0.05-0.01-0.1-0.04-0.16-0.07
		c-0.07-0.04-0.12-0.09-0.16-0.15c-0.05,0.04-0.11,0.07-0.16,0.08c-0.05,0.01-0.12,0.01-0.2-0.01l-0.17-0.04l0.04-0.19l0.17,0.04
		c0.07,0.02,0.13,0.01,0.19-0.01c0.05-0.02,0.09-0.05,0.14-0.09c0.06-0.05,0.13-0.1,0.2-0.13c0.07-0.03,0.13-0.04,0.18-0.04
		c0.03,0.09,0.06,0.17,0.07,0.24c0.02,0.09,0.03,0.17,0.01,0.22L45.87,49.9z M45.79,49.65c0-0.04,0-0.09-0.01-0.14
		c-0.01-0.04-0.02-0.08-0.04-0.12c-0.04,0-0.07,0.01-0.1,0.03c-0.02,0.01-0.04,0.03-0.08,0.07c0.02,0.03,0.05,0.07,0.09,0.1
		c0.04,0.03,0.08,0.06,0.13,0.07L45.79,49.65L45.79,49.65z M47.06,50.36l-1.21-0.48l0.07-0.18l0.86,0.34
		c-0.05-0.08-0.09-0.15-0.13-0.2c-0.05-0.06-0.09-0.11-0.13-0.15c-0.05-0.04-0.1-0.07-0.16-0.1c-0.04-0.01-0.07-0.03-0.11-0.04
		c0.04-0.04,0.08-0.07,0.13-0.09c0.07-0.03,0.13-0.03,0.21,0c0.07,0.03,0.14,0.1,0.21,0.21c0.03,0.05,0.09,0.15,0.16,0.29
		c0.05,0.11,0.1,0.17,0.12,0.19l0.06,0.03L47.06,50.36L47.06,50.36z M47.89,50.87l-0.1-0.06c-0.04-0.03-0.09-0.06-0.13-0.12
		c-0.05-0.06-0.09-0.12-0.11-0.19c-0.06,0.02-0.12,0.03-0.17,0.03c-0.05,0-0.11-0.03-0.19-0.07l-0.15-0.09l0.1-0.17l0.15,0.09
		c0.06,0.03,0.12,0.05,0.18,0.05c0.05,0,0.1-0.02,0.16-0.04c0.07-0.03,0.15-0.06,0.23-0.06c0.07-0.01,0.14,0,0.19,0.01
		c0.01,0.09,0.01,0.18,0,0.25c-0.01,0.1-0.02,0.17-0.05,0.21L47.89,50.87L47.89,50.87z M47.89,50.61c0.01-0.04,0.02-0.09,0.03-0.13
		c0-0.04,0-0.08,0-0.13c-0.04-0.01-0.07-0.01-0.1,0c-0.02,0.01-0.05,0.02-0.09,0.04c0.01,0.04,0.03,0.08,0.06,0.13
		c0.03,0.04,0.06,0.08,0.1,0.11L47.89,50.61z M49.89,52.96l-0.29-0.41c-0.03-0.03-0.04-0.07-0.04-0.12c0-0.04,0.01-0.07,0.04-0.09
		c0.02-0.02,0.05-0.03,0.07-0.04c0.02-0.01,0.05-0.02,0.07-0.03l0.01,0.02c-0.02,0.02-0.03,0.05-0.03,0.08
		c0,0.02,0.01,0.04,0.03,0.07l0.25,0.36c0.11-0.08,0.19-0.16,0.23-0.24c0.06-0.1,0.07-0.2,0.03-0.31l0.19-0.11
		c0.02,0.14-0.01,0.28-0.09,0.4c-0.07,0.1-0.17,0.21-0.32,0.31L49.89,52.96L49.89,52.96z M50.37,53.78l-0.21-0.36
		c0,0.05,0,0.1-0.02,0.15c-0.02,0.06-0.06,0.11-0.12,0.14c-0.05,0.03-0.1,0.05-0.14,0.05c-0.05,0-0.09-0.02-0.11-0.06
		c-0.04-0.08-0.06-0.17-0.04-0.26c0.02-0.12,0.08-0.21,0.19-0.27L50,53.14l-0.12-0.22l0.17-0.1l0.14,0.25
		c0.07-0.01,0.14-0.02,0.21-0.02c0.09,0,0.16,0,0.22,0.02c0.07,0.02,0.12,0.04,0.14,0.08c0.01,0.02,0,0.05-0.02,0.08
		c-0.03,0.04-0.06,0.07-0.1,0.09c-0.06,0.03-0.11,0.04-0.17,0.04c-0.03-0.01-0.09-0.04-0.19-0.1l0.25,0.43L50.37,53.78L50.37,53.78z
		 M50.52,53.27c0.06-0.04,0.09-0.07,0.07-0.09c-0.02-0.03-0.07-0.04-0.15-0.05c-0.04,0-0.1,0-0.19,0c0.05,0.05,0.1,0.09,0.15,0.11
		C50.45,53.27,50.49,53.28,50.52,53.27L50.52,53.27z M49.99,53.62c0.05-0.03,0.08-0.1,0.08-0.2c0-0.08-0.01-0.16-0.03-0.23
		c-0.07,0.04-0.12,0.09-0.15,0.15c-0.03,0.07-0.02,0.15,0.02,0.24c0.01,0.02,0.02,0.03,0.03,0.03
		C49.96,53.63,49.98,53.63,49.99,53.62L49.99,53.62z M50.71,54.68l-0.06-0.15c-0.02-0.05-0.03-0.1-0.02-0.15
		c0-0.07,0.02-0.12,0.06-0.16c-0.06-0.03-0.11-0.07-0.16-0.12c-0.06-0.06-0.11-0.14-0.14-0.23l-0.04-0.09l0.18-0.07l0.04,0.09
		c0.02,0.06,0.05,0.11,0.08,0.16c0.04,0.05,0.08,0.1,0.14,0.14l0.04-0.07c0.02-0.03,0.02-0.06,0.01-0.09
		c-0.01-0.01-0.01-0.02-0.02-0.03c-0.01-0.01-0.02-0.02-0.04-0.02l-0.01-0.02l0.06-0.02c0.08-0.03,0.14-0.03,0.18,0
		c0.04,0.03,0.08,0.09,0.12,0.18c0.03,0.08,0.05,0.15,0.05,0.21c0,0.08-0.03,0.13-0.09,0.15c-0.03,0.01-0.07,0.01-0.11,0
		c-0.03-0.01-0.08-0.03-0.14-0.06c-0.01,0.02-0.02,0.04-0.02,0.08s0.01,0.07,0.02,0.09l0.06,0.15L50.71,54.68L50.71,54.68z
		 M50.93,55.62l-0.03-0.11c-0.01-0.05-0.01-0.11-0.01-0.17c0.01-0.08,0.03-0.15,0.06-0.21c-0.06-0.03-0.11-0.07-0.14-0.1
		c-0.03-0.04-0.06-0.1-0.08-0.19l-0.04-0.17l0.19-0.04l0.04,0.17c0.02,0.07,0.05,0.12,0.09,0.17c0.04,0.03,0.08,0.06,0.14,0.08
		c0.08,0.03,0.14,0.07,0.21,0.13c0.06,0.05,0.1,0.1,0.12,0.14c-0.07,0.07-0.13,0.13-0.18,0.17c-0.07,0.06-0.14,0.1-0.19,0.11
		L50.93,55.62L50.93,55.62z M51.12,55.44c0.04-0.02,0.08-0.04,0.12-0.07c0.03-0.03,0.06-0.06,0.09-0.09
		c-0.02-0.03-0.04-0.06-0.07-0.08c-0.02-0.01-0.05-0.03-0.09-0.04c-0.02,0.03-0.04,0.08-0.05,0.13c-0.01,0.05-0.02,0.1-0.01,0.15
		L51.12,55.44z"/>
	<polygon class="st13" points="60.77,57.39 60.95,57.89 61.49,57.91 61.07,58.24 61.22,58.76 60.77,58.46 60.33,58.76 60.47,58.24 
		60.05,57.91 60.59,57.89 	"/>
	<circle class="st2" cx="43.73" cy="56.91" r="6.43"/>
	<path class="st14" d="M35.56,58.63l0.81-0.19l0.05,0.22l-0.52,0.26l0.58,0l0.05,0.22l-0.81,0.19l-0.03-0.14l0.64-0.15l-0.67,0.01
		l-0.03-0.14l0.6-0.29l-0.64,0.15L35.56,58.63L35.56,58.63z M36.55,59.24l0.06,0.14l-0.42,0.17c-0.07,0.03-0.11,0.05-0.13,0.06
		c-0.03,0.02-0.05,0.04-0.06,0.07c-0.01,0.03-0.01,0.06,0.01,0.1c0.02,0.04,0.04,0.06,0.06,0.08s0.05,0.02,0.08,0.01
		c0.03-0.01,0.07-0.02,0.13-0.05l0.43-0.17l0.06,0.14l-0.4,0.16c-0.09,0.04-0.16,0.06-0.2,0.07c-0.04,0.01-0.08,0.01-0.11,0
		c-0.03-0.01-0.07-0.03-0.1-0.06c-0.03-0.03-0.06-0.07-0.08-0.12c-0.03-0.07-0.04-0.12-0.04-0.16c0-0.04,0.01-0.08,0.03-0.11
		c0.02-0.03,0.04-0.06,0.07-0.07c0.04-0.03,0.1-0.06,0.19-0.09L36.55,59.24L36.55,59.24z M36.09,60.31l0.74-0.37l0.07,0.14
		l-0.29,0.15l0.13,0.26l0.29-0.15l0.07,0.14l-0.74,0.37l-0.07-0.14l0.32-0.16l-0.13-0.26l-0.32,0.16L36.09,60.31z M36.83,61.61
		l-0.09-0.14l0.12-0.16l-0.16-0.25l-0.19,0.05l-0.09-0.13l0.85-0.21l0.09,0.13L36.83,61.61L36.83,61.61z M36.95,61.2l0.2-0.25
		l-0.31,0.08L36.95,61.2z M36.91,61.74l0.65-0.51l0.14,0.18l-0.36,0.46l0.53-0.25L38,61.79l-0.65,0.51l-0.09-0.11l0.51-0.4
		l-0.6,0.29l-0.09-0.11l0.42-0.52l-0.51,0.4L36.91,61.74z M37.49,62.47l0.6-0.58l0.16,0.16l-0.31,0.49l0.5-0.3l0.16,0.16l-0.6,0.58
		l-0.1-0.1l0.47-0.45l-0.57,0.35l-0.1-0.1l0.37-0.56l-0.47,0.45L37.49,62.47L37.49,62.47z M38.67,63.57l-0.12-0.11l0.07-0.19
		l-0.23-0.19l-0.17,0.1l-0.12-0.1l0.76-0.44l0.12,0.1L38.67,63.57L38.67,63.57z M38.68,63.14l0.12-0.3l-0.28,0.17L38.68,63.14
		L38.68,63.14z M39.29,62.98l0.22,0.16c0.05,0.04,0.09,0.07,0.11,0.1c0.03,0.04,0.04,0.08,0.05,0.13c0,0.05,0,0.1-0.02,0.15
		c-0.02,0.05-0.05,0.11-0.1,0.17c-0.04,0.06-0.08,0.1-0.12,0.13c-0.05,0.04-0.1,0.06-0.15,0.07c-0.04,0.01-0.08,0-0.12-0.01
		c-0.03-0.01-0.07-0.03-0.12-0.06l-0.23-0.17L39.29,62.98L39.29,62.98z M39.33,63.18l-0.32,0.44l0.09,0.07
		c0.03,0.02,0.06,0.04,0.08,0.05c0.02,0.01,0.05,0.01,0.07,0.01c0.02,0,0.05-0.02,0.08-0.04c0.03-0.02,0.06-0.06,0.1-0.11
		c0.04-0.05,0.06-0.09,0.07-0.13c0.01-0.03,0.02-0.06,0.01-0.09c0-0.03-0.01-0.05-0.03-0.07c-0.01-0.02-0.05-0.04-0.09-0.08
		L39.33,63.18L39.33,63.18z M39.49,64.1l0.42-0.71l0.13,0.08l-0.42,0.71L39.49,64.1z M39.98,64.37l0.15-0.31l-0.03-0.55l0.16,0.08
		l0.01,0.37l0.3-0.22l0.16,0.08l-0.46,0.31l-0.15,0.31L39.98,64.37L39.98,64.37z M41.03,64.82l-0.15-0.06l0.01-0.2l-0.28-0.11
		l-0.13,0.15l-0.15-0.06l0.58-0.66l0.15,0.06L41.03,64.82z M40.9,64.42l0.02-0.32l-0.21,0.25L40.9,64.42z M41.18,64.87l0.22-0.8
		l0.15,0.04l-0.09,0.31l0.28,0.08l0.09-0.31l0.15,0.04l-0.22,0.8l-0.15-0.04l0.1-0.35l-0.28-0.08l-0.1,0.35L41.18,64.87L41.18,64.87
		z M43.11,64.41l0.3,0.01c0.06,0,0.1,0.01,0.13,0.01c0.03,0.01,0.05,0.02,0.08,0.04c0.02,0.02,0.04,0.04,0.05,0.07
		c0.01,0.03,0.02,0.06,0.02,0.1c0,0.04-0.01,0.07-0.03,0.11c-0.02,0.03-0.05,0.05-0.08,0.07c0.04,0.02,0.08,0.04,0.1,0.08
		c0.02,0.04,0.03,0.08,0.03,0.13c0,0.04-0.01,0.07-0.03,0.11c-0.02,0.04-0.04,0.06-0.07,0.08c-0.03,0.02-0.06,0.03-0.1,0.04
		c-0.03,0-0.09,0-0.18,0l-0.25-0.01L43.11,64.41L43.11,64.41z M43.26,64.55l-0.01,0.19l0.1,0c0.06,0,0.09,0,0.11,0
		c0.03,0,0.05-0.01,0.06-0.03c0.02-0.02,0.02-0.04,0.02-0.06c0-0.03,0-0.05-0.02-0.06c-0.01-0.02-0.03-0.03-0.06-0.03
		c-0.01,0-0.06-0.01-0.13-0.01L43.26,64.55L43.26,64.55z M43.24,64.88l-0.01,0.22l0.14,0.01c0.05,0,0.09,0,0.1,0
		c0.02,0,0.04-0.01,0.06-0.03c0.01-0.02,0.02-0.04,0.02-0.07c0-0.03,0-0.05-0.01-0.06c-0.01-0.02-0.03-0.03-0.05-0.04
		c-0.02-0.01-0.06-0.01-0.13-0.02L43.24,64.88L43.24,64.88z M43.84,64.86c-0.01-0.08,0-0.16,0.02-0.21
		c0.01-0.04,0.03-0.08,0.06-0.12c0.03-0.04,0.06-0.06,0.09-0.08c0.04-0.03,0.1-0.04,0.16-0.04c0.11-0.01,0.2,0.02,0.27,0.09
		c0.07,0.07,0.11,0.17,0.12,0.31c0.01,0.13-0.01,0.24-0.07,0.32c-0.06,0.08-0.14,0.12-0.25,0.13c-0.11,0.01-0.2-0.02-0.27-0.09
		C43.89,65.09,43.85,64.99,43.84,64.86L43.84,64.86z M43.99,64.84c0.01,0.09,0.03,0.16,0.07,0.21c0.04,0.05,0.09,0.07,0.15,0.06
		c0.06,0,0.11-0.03,0.14-0.08c0.03-0.05,0.05-0.12,0.04-0.22c-0.01-0.09-0.03-0.16-0.07-0.21c-0.04-0.04-0.09-0.06-0.15-0.06
		c-0.06,0-0.11,0.03-0.14,0.08C44,64.67,43.99,64.75,43.99,64.84L43.99,64.84z M45.44,65.08l-0.16,0.03l-0.1-0.17l-0.29,0.06
		l-0.03,0.2l-0.16,0.03l0.13-0.87l0.16-0.03L45.44,65.08L45.44,65.08z M45.11,64.81l-0.16-0.28l-0.04,0.32L45.11,64.81L45.11,64.81z
		 M45.59,65.05l-0.21-0.8l0.31-0.08c0.08-0.02,0.14-0.03,0.17-0.02c0.04,0.01,0.07,0.02,0.1,0.06c0.03,0.03,0.05,0.07,0.06,0.12
		c0.02,0.06,0.01,0.11-0.01,0.16c-0.02,0.05-0.06,0.08-0.12,0.11c0.04,0.01,0.07,0.03,0.09,0.05c0.03,0.02,0.07,0.06,0.12,0.11
		l0.13,0.13l-0.17,0.04l-0.15-0.15c-0.05-0.05-0.09-0.09-0.11-0.1c-0.02-0.01-0.04-0.02-0.05-0.02c-0.02,0-0.04,0-0.08,0.01
		l-0.03,0.01l0.09,0.34L45.59,65.05L45.59,65.05z M45.62,64.55l0.11-0.03c0.07-0.02,0.11-0.03,0.13-0.04
		c0.02-0.01,0.03-0.03,0.03-0.04c0.01-0.02,0.01-0.04,0-0.06c-0.01-0.03-0.02-0.05-0.04-0.06s-0.04-0.02-0.06-0.02
		c-0.01,0-0.05,0.01-0.11,0.02l-0.11,0.03L45.62,64.55L45.62,64.55z M46.08,64.07l0.25-0.1c0.06-0.02,0.1-0.04,0.14-0.04
		c0.05,0,0.09,0.01,0.13,0.03c0.04,0.02,0.08,0.05,0.12,0.1c0.03,0.04,0.07,0.1,0.1,0.17c0.03,0.06,0.04,0.12,0.05,0.17
		c0.01,0.06,0,0.12-0.02,0.17c-0.01,0.04-0.04,0.07-0.07,0.1c-0.03,0.02-0.07,0.05-0.12,0.07l-0.26,0.11L46.08,64.07L46.08,64.07z
		 M46.27,64.15l0.21,0.51l0.1-0.04c0.04-0.02,0.07-0.03,0.08-0.04c0.02-0.02,0.03-0.03,0.04-0.05c0.01-0.02,0.01-0.05,0.01-0.09
		c0-0.04-0.02-0.09-0.04-0.15c-0.02-0.06-0.05-0.1-0.07-0.13c-0.02-0.03-0.05-0.05-0.07-0.06c-0.02-0.01-0.05-0.01-0.08-0.01
		c-0.02,0-0.06,0.02-0.12,0.04L46.27,64.15L46.27,64.15z M47.15,64.53l-0.34-0.76l0.14-0.06l0.34,0.76L47.15,64.53z M47.49,64.39
		l-0.42-0.72l0.13-0.07l0.54,0.33l-0.28-0.48l0.12-0.07L48,64.09l-0.13,0.08l-0.53-0.32l0.27,0.47L47.49,64.39L47.49,64.39z
		 M48.3,63.52l-0.08-0.11l0.26-0.19l0.19,0.27c-0.01,0.05-0.03,0.1-0.06,0.15c-0.03,0.06-0.08,0.1-0.13,0.14
		c-0.06,0.05-0.13,0.07-0.2,0.07c-0.07,0-0.13-0.01-0.2-0.05c-0.06-0.04-0.12-0.09-0.16-0.15c-0.05-0.07-0.08-0.14-0.09-0.22
		c-0.01-0.07,0-0.14,0.03-0.21c0.02-0.05,0.06-0.1,0.12-0.14c0.08-0.05,0.15-0.08,0.21-0.07c0.07,0.01,0.13,0.03,0.19,0.09
		l-0.1,0.11c-0.03-0.03-0.07-0.04-0.1-0.04c-0.04,0-0.07,0.01-0.11,0.03c-0.05,0.04-0.08,0.09-0.09,0.15c0,0.06,0.02,0.13,0.07,0.2
		c0.06,0.08,0.12,0.13,0.18,0.15c0.06,0.02,0.12,0.01,0.17-0.03c0.03-0.02,0.05-0.04,0.06-0.07c0.02-0.03,0.03-0.06,0.04-0.09
		l-0.06-0.09L48.3,63.52L48.3,63.52z M49.51,62.57l0.08-0.12c0.05,0.03,0.09,0.04,0.13,0.04c0.04,0,0.07-0.02,0.1-0.06
		c0.03-0.04,0.05-0.07,0.05-0.1c0-0.03-0.01-0.06-0.04-0.08c-0.01-0.01-0.03-0.02-0.05-0.02c-0.02,0-0.04,0-0.06,0.02
		c-0.02,0.01-0.05,0.03-0.11,0.07c-0.07,0.05-0.13,0.07-0.17,0.07c-0.06,0-0.12-0.02-0.17-0.06c-0.03-0.03-0.05-0.06-0.07-0.1
		c-0.01-0.04-0.01-0.08,0-0.13s0.04-0.09,0.07-0.13c0.06-0.07,0.12-0.11,0.19-0.11c0.07-0.01,0.13,0.02,0.19,0.07l-0.09,0.12
		c-0.04-0.02-0.07-0.03-0.1-0.03c-0.03,0-0.06,0.02-0.08,0.05c-0.03,0.03-0.04,0.06-0.04,0.1c0,0.02,0.01,0.04,0.02,0.05
		c0.01,0.01,0.03,0.02,0.05,0.02c0.03,0,0.07-0.02,0.13-0.07c0.06-0.04,0.11-0.07,0.15-0.08c0.04-0.01,0.08-0.02,0.12-0.01
		c0.04,0.01,0.08,0.03,0.12,0.06c0.04,0.03,0.06,0.07,0.08,0.11c0.02,0.05,0.02,0.09,0,0.14c-0.01,0.05-0.04,0.09-0.08,0.14
		c-0.06,0.07-0.13,0.11-0.2,0.12C49.66,62.64,49.59,62.62,49.51,62.57L49.51,62.57z M50.28,61.57l0.13-0.09
		c0.06,0.07,0.09,0.14,0.1,0.21c0.01,0.07-0.02,0.13-0.06,0.2c-0.06,0.08-0.14,0.12-0.23,0.13c-0.1,0.01-0.2-0.03-0.31-0.1
		c-0.11-0.08-0.18-0.17-0.2-0.27c-0.02-0.1-0.01-0.19,0.06-0.27c0.05-0.07,0.12-0.12,0.2-0.13c0.05-0.01,0.1,0,0.17,0.03l-0.06,0.14
		c-0.04-0.02-0.08-0.02-0.11-0.02c-0.04,0.01-0.07,0.03-0.09,0.06c-0.03,0.04-0.04,0.09-0.03,0.15c0.02,0.05,0.06,0.11,0.14,0.17
		c0.08,0.06,0.16,0.09,0.21,0.09c0.06,0,0.1-0.02,0.13-0.07c0.02-0.03,0.03-0.07,0.03-0.11S50.32,61.62,50.28,61.57L50.28,61.57z
		 M50.73,61.47l-0.71-0.42l0.08-0.13l0.28,0.17l0.15-0.25l-0.28-0.17l0.08-0.13l0.71,0.42l-0.08,0.13l-0.31-0.18l-0.15,0.25
		l0.31,0.18L50.73,61.47L50.73,61.47z M50.76,60.62c-0.08-0.03-0.14-0.07-0.18-0.12c-0.03-0.03-0.06-0.07-0.08-0.11
		c-0.02-0.04-0.03-0.08-0.03-0.12c0-0.05,0.01-0.1,0.04-0.16c0.05-0.1,0.12-0.16,0.21-0.19c0.1-0.03,0.21-0.02,0.33,0.04
		c0.12,0.06,0.2,0.13,0.25,0.22c0.04,0.09,0.04,0.19,0,0.29c-0.05,0.1-0.12,0.17-0.21,0.19C50.99,60.69,50.88,60.67,50.76,60.62
		L50.76,60.62z M50.82,60.48c0.09,0.04,0.16,0.05,0.22,0.03c0.06-0.02,0.1-0.05,0.13-0.11c0.02-0.05,0.02-0.11,0-0.16
		c-0.03-0.05-0.09-0.1-0.17-0.14c-0.09-0.04-0.16-0.05-0.22-0.04c-0.06,0.01-0.1,0.05-0.13,0.11c-0.03,0.06-0.02,0.11,0,0.17
		C50.68,60.39,50.73,60.44,50.82,60.48L50.82,60.48z M51.11,59.85c-0.08-0.03-0.14-0.06-0.19-0.1c-0.03-0.03-0.06-0.06-0.09-0.1
		c-0.02-0.04-0.04-0.08-0.04-0.12c-0.01-0.05,0-0.11,0.02-0.16c0.04-0.1,0.1-0.17,0.19-0.21c0.09-0.04,0.2-0.03,0.33,0.01
		c0.13,0.04,0.22,0.11,0.27,0.2c0.05,0.09,0.06,0.18,0.02,0.29c-0.04,0.1-0.1,0.18-0.19,0.21C51.35,59.9,51.24,59.89,51.11,59.85z
		 M51.16,59.7c0.09,0.03,0.16,0.04,0.22,0.01c0.06-0.02,0.1-0.06,0.12-0.12c0.02-0.06,0.01-0.11-0.02-0.16
		c-0.03-0.05-0.1-0.09-0.19-0.13c-0.09-0.03-0.16-0.04-0.22-0.02c-0.06,0.02-0.09,0.06-0.12,0.12s-0.01,0.11,0.02,0.17
		C51.01,59.63,51.07,59.67,51.16,59.7L51.16,59.7z M51.79,59.11l-0.8-0.18l0.03-0.15l0.66,0.15l0.08-0.36l0.14,0.03L51.79,59.11
		L51.79,59.11z"/>
	<polygon class="st13" points="26.59,57.39 26.78,57.89 27.31,57.91 26.89,58.24 27.04,58.76 26.59,58.46 26.15,58.76 26.29,58.24 
		25.87,57.91 26.41,57.89 	"/>
	<g id="_2513682746976">
		<path class="st1" d="M45.23,58.13l0.44,0.37c0.16,0.15,0.54,0.44,0.67,0.57c0.04,0.04,0.03,0.04,0.08,0.06
			c-0.02,0.07-0.03,0.02-0.08,0.25c-0.02,0.09-0.04,0.18-0.06,0.27l-0.11,0.56H45.3c-0.07,0-0.02,0.18-0.02,0.27
			c0.21,0.05,0.47,0.12,0.47,0.42c0,0.26,0.01,0.4-0.16,0.62c-0.19,0.26-0.52,0.35-0.66,0.08c-0.14-0.28-0.19-0.68-0.14-1
			c0.06-0.37,0.27-0.72,0.49-1.01c0.02-0.02,0.03-0.04,0.05-0.06c-0.03-0.04-0.07-0.08-0.11-0.11l-0.35-0.31
			c-0.02-0.02-0.03-0.03-0.05-0.05l-0.29-0.25c-0.05-0.05-0.06-0.06-0.15-0.06c0.01-0.01,0.01-0.01,0.02-0.01
			c0.31-0.17,0.32-0.12,0.65-0.41L45.23,58.13L45.23,58.13z M42.08,59.51c0.02,0.02,0.03,0.04,0.05,0.06
			c0.02,0.02,0.03,0.04,0.05,0.07l0.34,0.59c0.16,0.41,0.17,0.8,0.03,1.22c-0.07,0.2-0.15,0.31-0.35,0.31
			c-0.15,0-0.32-0.16-0.38-0.26c-0.17-0.25-0.22-0.71-0.03-0.88c0.1-0.09,0.21-0.11,0.36-0.15l0.01-0.27h-0.44
			c-0.17,0-0.3,0.01-0.47,0.01l-0.1-0.54c-0.04-0.18-0.07-0.36-0.11-0.53l0.37-0.32c0.15-0.12,0.76-0.66,0.84-0.72
			c0.12,0.18,0.38,0.37,0.57,0.48l0.24,0.11c-0.06,0.08-0.02-0.06-0.21,0.12l-0.29,0.26c-0.04,0.03-0.07,0.07-0.12,0.1
			c-0.02,0.02-0.03,0.03-0.06,0.05l-0.18,0.16C42.17,59.44,42.12,59.48,42.08,59.51L42.08,59.51z M41.98,57.03
			c0-0.32,0.03-0.57,0.16-0.84c0.19-0.39,0.46-0.67,0.85-0.86c0.45-0.22,1.08-0.23,1.53,0c0.36,0.18,0.65,0.45,0.84,0.81
			c0.24,0.48,0.24,1.12,0,1.59c-0.1,0.19-0.14,0.24-0.26,0.38c-0.06,0.08-0.14,0.15-0.21,0.21l-0.26,0.17
			c-0.05,0.03-0.09,0.05-0.15,0.07c-0.12,0.05-0.2,0.07-0.33,0.11c-0.36,0.09-0.78,0.04-1.1-0.11c-0.18-0.09-0.24-0.12-0.41-0.25
			l-0.16-0.15c-0.17-0.2-0.27-0.3-0.38-0.6c-0.02-0.06-0.03-0.1-0.05-0.16C42.01,57.3,41.98,57.16,41.98,57.03L41.98,57.03z
			 M44.54,55.25h0.05C44.58,55.31,44.57,55.28,44.54,55.25z M44.54,55.25c-0.03-0.01-0.02,0-0.04-0.02
			C44.54,55.23,44.52,55.22,44.54,55.25z M44.5,55.21v0.01V55.21z M44.5,55.21c0.02-0.08,0.2-0.43,0.24-0.52
			c0.09-0.17,0.16-0.34,0.25-0.51c0.13-0.26,0.25-0.51,0.36-0.77c0.03-0.06,0.02-0.06,0.01-0.15c-0.01-0.05-0.03-0.11-0.03-0.16
			c-0.07,0.02-0.23,0.12-0.26,0.19l-0.08,0.22c-0.06,0.19-0.13,0.37-0.19,0.55l-0.14,0.4c-0.02,0.05-0.03,0.09-0.05,0.14
			c-0.04,0.1-0.06,0.18-0.09,0.28c-0.03,0.09-0.07,0.2-0.1,0.27c-0.05,0-0.11-0.03-0.15-0.05c0.06-0.25,0.37-1.14,0.38-1.27
			c0-0.08-0.02-0.15-0.03-0.22c-0.05,0.01-0.08,0.07-0.11,0.12c-0.07,0.1-0.08,0.23-0.12,0.37c-0.02,0.07-0.03,0.13-0.04,0.2
			c-0.06,0.26-0.11,0.52-0.17,0.78c-0.06,0-0.1-0.02-0.16-0.02c0.02-0.04,0.31-1.61,0.33-1.73c0.06-0.29,0.07-0.19-0.02-0.4
			c-0.02-0.05-0.03-0.08-0.07-0.11c-0.03,0.02-0.12,0.14-0.14,0.17c-0.03,0.04-0.04,0.06-0.04,0.12l-0.04,0.44
			c-0.01,0.12,0,0.2-0.02,0.31L44,54.29c0,0.06,0,0.09-0.01,0.15l-0.04,0.6c-0.08,0-0.1-0.01-0.18-0.01
			c0.02-0.04,0.02-0.34,0.02-0.41l0.01-0.21c0.01-0.21,0.05-0.64,0.05-0.82c0-0.2,0.04-0.42,0.04-0.63c0-0.09,0.01-0.12,0.01-0.21
			l0.03-0.52c0.01-0.07-0.02-0.08-0.06-0.14c-0.04-0.06-0.08-0.16-0.14-0.2c-0.04,0.03-0.06,0.08-0.09,0.13
			c-0.03,0.05-0.06,0.09-0.08,0.13c-0.04,0.07-0.02,0.31,0,0.4c0.02,0.13,0,0.28,0.02,0.41c0.03,0.18,0.02,0.65,0.05,0.82
			c0.04,0.23,0.02,0.59,0.05,0.82c0.02,0.15,0.02,0.28,0.02,0.42c-0.08,0-0.1,0.01-0.17,0.01c0-0.09-0.01-0.22-0.02-0.29l-0.11-1.52
			c-0.04-0.3,0.05-0.12-0.18-0.39c-0.02-0.03-0.01-0.03-0.05-0.04c-0.01,0.09-0.07,0.16-0.09,0.25c-0.02,0.1,0.17,0.95,0.2,1.14
			l0.11,0.57c0.02,0.08,0.05,0.21,0.05,0.29c-0.03,0.01-0.12,0.03-0.16,0.04c-0.02-0.04-0.03-0.14-0.05-0.18l-0.22-0.98
			c-0.03-0.12-0.05-0.15-0.12-0.24c-0.02-0.03-0.02-0.05-0.07-0.05c0,0.06-0.03,0.14-0.02,0.2c0.03,0.26,0.37,1.12,0.38,1.28
			c-0.03,0.02-0.1,0.04-0.15,0.05c-0.06-0.1-0.16-0.43-0.2-0.54c-0.07-0.22-0.43-1.3-0.49-1.36c-0.03-0.04-0.17-0.12-0.22-0.15
			c-0.03,0.06-0.05,0.24-0.03,0.31l0.67,1.38c0.02,0.04,0.04,0.09,0.06,0.13c0.04,0.08,0.1,0.18,0.12,0.27l-0.16,0.08
			c-0.02-0.07-0.14-0.28-0.18-0.36l-0.54-1.07c-0.18-0.36-0.35-0.71-0.54-1.06c-0.03-0.06-0.1-0.08-0.16-0.11
			c-0.06-0.03-0.12-0.07-0.19-0.08c0,0.17-0.05,0.31,0.05,0.46l1.39,2.1c0.03,0.05,0.09,0.12,0.1,0.18
			c-0.03,0.01-0.07,0.03-0.08,0.05c-0.03,0.06,0.01-0.02,0,0.04l-0.03,0.03c-0.04-0.08,0.01,0-0.06-0.11
			c-0.21-0.27-0.39-0.56-0.58-0.85l-0.49-0.72c-0.04-0.05-0.06-0.05-0.13-0.08c-0.04-0.01-0.12-0.04-0.16-0.04
			c0,0.08,0.01,0.12,0.01,0.18c0.01,0.16,0.04,0.12,0.14,0.25l0.92,1.06c0.08,0.09,0.21,0.22,0.28,0.32
			c-0.07,0.03-0.07,0.06-0.12,0.1c-0.08-0.05-0.14-0.14-0.2-0.2l-0.13-0.13c-0.08-0.1-0.17-0.19-0.26-0.28
			c-0.08-0.09-0.24-0.29-0.33-0.35c-0.03-0.02-0.16-0.07-0.21-0.07c0.02,0.06,0.05,0.14,0.07,0.19c0.03,0.07,0.09,0.09,0.14,0.14
			l0.79,0.72c0.04,0.03,0.06,0.03,0.07,0.08c-0.06,0.01-0.08,0.06-0.12,0.08c-0.11-0.06-0.22-0.18-0.32-0.26l-0.47-0.41
			c-0.23-0.2-0.45-0.4-0.7-0.59c-0.1-0.08-0.2-0.06-0.34-0.06c0.13,0.27,0.01,0.22,0.35,0.44c0.44,0.28,0.86,0.58,1.29,0.87
			c0.04,0.03,0.08,0.07,0.13,0.08c-0.02,0.04-0.07,0.1-0.08,0.15c-0.2-0.1-0.61-0.39-0.81-0.52l-1.46-0.95
			c-0.08-0.05-0.07-0.06-0.2-0.06c-0.1,0-0.17,0.01-0.27,0.01c0.01,0.08,0.13,0.3,0.19,0.34c0.23,0.14,0.84,0.43,1.07,0.54
			l1.24,0.62c0.03,0.01,0.06,0.03,0.09,0.04L42.08,56c-0.03,0.06-0.07,0.1-0.04,0.14c0.01,0.02,0.01,0.01,0.02,0.03
			c-0.02-0.01-0.04-0.02-0.07-0.03c-0.03-0.01-0.04-0.02-0.07-0.03c-0.05-0.02-0.09-0.04-0.13-0.06l-1.31-0.63
			c-0.08-0.04-0.17-0.09-0.26-0.13c-0.05-0.02-0.09,0-0.15,0.01c-0.04,0.01-0.13,0.02-0.16,0.04c0.01,0.05,0.04,0.07,0.07,0.11
			c0.09,0.13,0.06,0.12,0.2,0.16c0.23,0.08,0.45,0.17,0.69,0.23c0.09,0.03,0.18,0.06,0.27,0.09l0.68,0.23
			c0.05,0.02,0.09,0.04,0.14,0.05c0,0.05-0.01,0.06-0.02,0.11c0.04,0.06,0.03-0.01,0.04,0.06c-0.11-0.01-0.98-0.29-1.13-0.34
			c-0.04-0.01-0.15-0.06-0.18-0.06c-0.05,0-0.15,0.03-0.22,0.03c0.01,0.09,0.21,0.17,0.29,0.19l0.96,0.21
			c0.05,0.01,0.16,0.03,0.19,0.05c0,0.05-0.02,0.09-0.02,0.15c-0.15,0-1.5-0.28-1.72-0.32c-0.29-0.06-0.26-0.06-0.51,0.08
			c0.05,0.08,0.18,0.18,0.28,0.19c0.06,0.01,0.09,0.01,0.14,0.01c0.09,0,0.22,0.01,0.29,0.02l0.59,0.04c0.09,0,0.21,0.01,0.3,0.02
			c0.09,0.01,0.21,0.01,0.3,0.02c0.09,0,0.2,0.02,0.3,0.02v0.17c-0.22,0-0.45-0.02-0.65-0.04l-0.33-0.01
			c-0.07,0-0.09-0.01-0.16-0.01l-0.82-0.05c-0.12-0.01-0.56-0.01-0.67-0.04v0.39c0.07-0.03,0.81-0.05,0.98-0.06l0.33-0.02
			c0.3,0,0.67-0.04,0.98-0.06c0.12-0.01,0.22-0.01,0.34-0.01v0.17l-0.88,0.06c-0.09,0.01-0.2,0.02-0.3,0.02l-0.58,0.05
			c-0.12,0.01-0.18-0.01-0.26,0.05c-0.03,0.02-0.06,0.05-0.09,0.07c-0.04,0.03-0.06,0.04-0.09,0.08c0.05,0.03,0.16,0.08,0.23,0.1
			c0.1,0.03,0.73-0.12,0.86-0.14c0.18-0.03,0.37-0.07,0.56-0.11c0.1-0.02,0.19-0.04,0.28-0.06c0.08-0.02,0.2-0.05,0.29-0.05
			c0.01,0.05,0.02,0.09,0.02,0.16l-0.77,0.17c-0.14,0.03-0.44,0.08-0.55,0.16c-0.04,0.03-0.1,0.07-0.13,0.11
			c0.07,0,0.14,0.02,0.2,0.03c0.09,0.01,0.27-0.07,0.37-0.1c0.06-0.02,0.12-0.04,0.18-0.06c0.12-0.04,0.24-0.08,0.36-0.11
			c0.06-0.02,0.12-0.04,0.18-0.06c0.06-0.02,0.13-0.05,0.19-0.05c0.01,0.07,0.03,0.09,0.04,0.16c-0.07,0.01-0.2,0.06-0.27,0.09
			c-0.15,0.05-1.54,0.52-1.61,0.57c-0.06,0.05-0.12,0.15-0.15,0.22c0.04,0.02,0.25,0.06,0.3,0.04l1.27-0.61
			c0.09-0.05,0.43-0.23,0.51-0.24c0.01,0.05,0.05,0.1,0.06,0.16c-0.09,0.02-1.3,0.64-1.42,0.7c-0.24,0.12-0.46,0.24-0.71,0.36
			c-0.12,0.06-0.24,0.11-0.35,0.18c-0.07,0.04-0.07,0.09-0.11,0.16c-0.13,0.21-0.09,0.2,0.18,0.2c0.14,0,0.21-0.07,0.36-0.17
			c0.21-0.14,0.42-0.29,0.64-0.42l1.12-0.74c0.06-0.04,0.1-0.07,0.16-0.11c0.05-0.03,0.11-0.08,0.17-0.09l0.08,0.15
			c-0.1,0.06-1.56,1.05-1.62,1.1c-0.07,0.06-0.08,0.19-0.12,0.28c0.31,0,0.23,0.01,0.44-0.13c-0.01,0.05-0.03,0.08-0.02,0.13l0,2.2
			c0,0.12,0.01,0.22,0.01,0.33h2.52V59.6c0-0.27,0.01-0.51,0.01-0.79c0.07,0.02,0.21,0.03,0.29,0.04l-0.06,1.23
			c-0.01,0.13-0.01,0.27-0.02,0.41l-0.06,0.92c0,0.03,0,0.07,0,0.11c0,0.1-0.03,0.09,0.02,0.17c0.05,0.07,0.12,0.22,0.18,0.25
			c0.04-0.17,0.21-0.17,0.18-0.46c-0.02-0.26-0.03-0.79-0.06-1.01c-0.03-0.23-0.02-0.57-0.05-0.81l-0.05-0.81
			c0.32-0.01,0.25-0.18,0.25,0.55v2.57h2.53c0-0.46,0.01-0.87,0.01-1.33c0-0.45,0-0.9,0-1.34c0.03,0.02,0.05,0.04,0.08,0.07
			c0.14,0.11,0.08,0.09,0.38,0.09c-0.02-0.08-0.06-0.21-0.12-0.27c-0.06-0.07-0.79-0.54-0.92-0.63c-0.08-0.05-0.15-0.1-0.23-0.15
			l-0.35-0.23c-0.04-0.03-0.08-0.07-0.13-0.08c0-0.05,0.05-0.12,0.08-0.15c0.09,0.02,0.66,0.43,0.81,0.52
			c0.25,0.15,0.56,0.37,0.81,0.53l0.48,0.32c0.22,0.13,0.18,0.17,0.35,0.16c0.09-0.01,0.18-0.01,0.25-0.02
			c-0.01-0.08-0.14-0.3-0.21-0.34l-0.72-0.37c-0.06-0.03-0.11-0.06-0.18-0.09c-0.07-0.03-0.12-0.06-0.19-0.09l-1.36-0.68
			c-0.05-0.02-0.07-0.02-0.07-0.07c0.04,0.03,0.01,0.02,0.06,0.02c0.02-0.04,0.05-0.08,0.06-0.12l0.75,0.36
			c0.05,0.02,0.08,0.04,0.12,0.06c0.2,0.1,0.71,0.35,0.89,0.43c0.07,0.03,0.25-0.01,0.31-0.03l-0.14-0.22
			c-0.05-0.05-0.19-0.08-0.26-0.1l-1.37-0.48c-0.09-0.03-0.19-0.06-0.28-0.1c0.02-0.03,0.04-0.1,0.05-0.15
			c0.28,0.07,1.11,0.37,1.26,0.38c0.06,0,0.14-0.02,0.2-0.03c0-0.05-0.01-0.04-0.04-0.07c-0.08-0.06-0.12-0.1-0.23-0.12
			c-0.12-0.03-0.26-0.06-0.39-0.08c-0.12-0.02-0.25-0.06-0.38-0.08c-0.06-0.01-0.12-0.03-0.19-0.04c-0.06-0.01-0.14-0.04-0.2-0.04
			c0-0.07,0-0.12,0.02-0.17c0.38,0.09,0.75,0.14,1.14,0.22c0.09,0.02,0.79,0.16,0.85,0.14c0.06-0.02,0.2-0.08,0.23-0.12
			c-0.01-0.02-0.06-0.06-0.08-0.07c-0.03-0.02-0.05-0.05-0.09-0.07c-0.11-0.07-0.7-0.07-0.85-0.09c-0.23-0.03-0.5-0.03-0.73-0.06
			l-0.45-0.03c0-0.08,0-0.12,0.01-0.18c0.06,0.01,0.27,0.02,0.34,0.02l0.71,0.04c0.22,0.03,0.89,0.04,1.06,0.06l0.71,0.04v-0.4
			c-0.19,0-0.36,0.03-0.52,0.02l-0.89,0.06c-0.11,0.02-0.24,0.01-0.36,0.02c-0.31,0.03-0.76,0.06-1.07,0.06
			c0-0.2-0.07-0.15,0.14-0.18c0.29-0.04,0.66-0.04,0.95-0.06c0.2-0.02,0.42-0.04,0.63-0.05c0.28-0.01,0.25-0.01,0.39-0.12
			c0.03-0.02,0.08-0.06,0.1-0.08c-0.03-0.04-0.16-0.1-0.22-0.11c-0.11-0.03-0.73,0.11-0.86,0.14c-0.18,0.04-0.38,0.08-0.56,0.12
			c-0.2,0.04-0.39,0.07-0.58,0.11l-0.03-0.17c0.26-0.06,0.52-0.11,0.77-0.17c0.13-0.03,0.25-0.06,0.39-0.09
			c0.11-0.02,0.16-0.06,0.23-0.12c0.03-0.02,0.05-0.02,0.05-0.07c-0.23-0.01-0.09-0.08-0.38,0.02c-0.12,0.04-0.24,0.07-0.36,0.11
			c-0.06,0.02-0.11,0.03-0.18,0.05l-0.37,0.12c-0.06,0.02-0.13,0.03-0.18,0.06c-0.02-0.04-0.05-0.1-0.05-0.16
			c0.09-0.02,0.18-0.06,0.27-0.09l0.82-0.28c0.11-0.04,0.76-0.25,0.81-0.29c0.03-0.03,0.12-0.18,0.15-0.23
			c-0.05-0.02-0.24-0.05-0.32-0.03c-0.02,0.01-0.04,0.02-0.06,0.03c-0.21,0.09-0.74,0.35-0.95,0.46c-0.08,0.04-0.16,0.08-0.25,0.13
			c-0.05,0.02-0.08,0.03-0.13,0.06c-0.1,0.05-0.28,0.16-0.39,0.18c-0.01-0.06-0.05-0.09-0.06-0.16c0.23-0.12,0.47-0.24,0.71-0.36
			c0.24-0.12,0.47-0.23,0.71-0.36l0.71-0.36c0.11-0.06,0.25-0.11,0.36-0.18c0.06-0.04,0.19-0.27,0.19-0.35c-0.09,0-0.18,0-0.27,0
			c-0.14,0-0.12,0.01-0.2,0.06c-0.66,0.42-1.31,0.86-1.96,1.3l-0.29,0.18c-0.02,0.01-0.02,0.02-0.04,0.03
			c-0.03-0.04-0.01-0.03,0-0.05c0.05-0.07-0.01,0.06,0.02-0.02c-0.03-0.03-0.05-0.07-0.06-0.11c0.05-0.01,0.6-0.4,0.69-0.47
			l0.47-0.32c0.15-0.11,0.32-0.2,0.47-0.32c0.05-0.04,0.05-0.07,0.07-0.12c0.02-0.04,0.04-0.11,0.04-0.16
			c-0.24,0-0.28,0.02-0.43,0.15l-0.1,0.09c-0.16,0.16-0.74,0.65-0.94,0.82l-0.21,0.18c-0.03,0.03-0.08,0.07-0.11,0.09
			c-0.04-0.03-0.1-0.07-0.11-0.12c0.02-0.03,0.04-0.04,0.07-0.06c0.03-0.02,0.04-0.04,0.07-0.07l0.21-0.19
			c0.17-0.14,0.32-0.31,0.49-0.45c0.02-0.02,0.12-0.11,0.13-0.13c0.02-0.03,0.08-0.18,0.06-0.2c-0.02-0.02-0.16,0.05-0.18,0.06
			c-0.05,0.03-0.15,0.14-0.2,0.2l-0.32,0.36c-0.02,0.03-0.04,0.04-0.07,0.07l-0.13,0.15c-0.04,0.05-0.15,0.18-0.2,0.21
			c-0.03-0.03-0.09-0.06-0.11-0.1c0.02-0.06,0.38-0.46,0.45-0.54c0.02-0.03,0.02-0.03,0.04-0.05l0.18-0.21
			c0.1-0.1,0.18-0.22,0.27-0.32l0.19-0.21c0.18-0.2,0.19-0.21,0.19-0.5c-0.07,0.03-0.14,0.04-0.21,0.08L46,53.74c0,0,0,0-0.01,0.01
			c-0.07,0.07-0.12,0.16-0.17,0.24c-0.05,0.08-0.1,0.15-0.15,0.23c-0.03,0.04-0.05,0.07-0.08,0.11c-0.06,0.09-0.7,1.01-0.71,1.07
			c-0.07-0.02-0.09-0.07-0.16-0.08c0.01-0.04,0.03-0.05,0.05-0.08c0.13-0.18,0.25-0.38,0.37-0.56l1.07-1.62
			c0.11-0.17,0.05-0.2,0.05-0.47c-0.08,0.01-0.3,0.13-0.34,0.19l-0.54,1.07c-0.24,0.48-0.47,0.95-0.72,1.42
			C44.59,55.24,44.59,55.21,44.5,55.21L44.5,55.21z M43.19,57.58c-0.05,0-0.09-0.03-0.13-0.05c-0.14-0.08-0.06-0.14-0.05-0.17
			c0.01-0.03,0.02-0.05,0.03-0.08c0.05-0.15,0.06-0.36,0.19-0.45c0.09,0.06,0.09,0.14,0.24,0.14c0.08,0,0.13-0.06,0.21-0.06
			c0.02,0.26-0.09,0.39-0.29,0.55C43.34,57.52,43.25,57.58,43.19,57.58z M44.54,56.46c-0.05,0-0.05,0-0.06-0.05l0.05-0.01
			C44.58,56.41,44.55,56.43,44.54,56.46L44.54,56.46z M43.2,56.43c0,0.03,0.03,0.09,0.04,0.11c-0.11,0.06-0.12,0.06-0.19,0.15
			c-0.05,0.07-0.06,0.18-0.08,0.26c-0.01,0.06-0.03,0.14-0.05,0.18c-0.05,0-0.06,0-0.1,0.01l-0.08-0.22
			c-0.02-0.07-0.06-0.16-0.08-0.23c-0.05,0.01-0.07,0.14-0.07,0.15c0,0.06,0.01,0.11,0.02,0.16c0.03,0.21,0.02,0.19,0.15,0.32
			c0.09,0.09,0.06,0,0.09,0.18c0.01,0.06,0.02,0.1,0.05,0.15c0.05,0.09,0.1,0.15,0.24,0.15c0.17,0,0.31-0.07,0.41-0.19
			c0.02-0.03,0.04-0.05,0.06-0.08c0.03-0.05,0.14-0.26,0.19-0.27l0.1,0.22c0.07,0.11,0.23,0.26,0.38,0.28
			c0.06,0.01,0.23-0.01,0.28-0.04c-0.01-0.06-0.09-0.15-0.11-0.21c-0.04,0-0.22,0.01-0.24-0.01c-0.06-0.03-0.02-0.14,0.01-0.18
			c0.02-0.03,0.13-0.15,0.17-0.18c0.04-0.04,0.06-0.04,0.11-0.07c0.19-0.1,0.44-0.06,0.44-0.27v-0.07c-0.05,0-0.14,0.03-0.19,0.05
			c-0.21,0.05-0.14,0.04-0.36,0.04c-0.04,0-0.07-0.01-0.1-0.02c0.03-0.04,0.13-0.07,0.18-0.1c0.03-0.01,0.02-0.02,0.1,0.02
			c0.03,0.02,0.07,0.03,0.1,0.04c0-0.05-0.05-0.09-0.05-0.12c0-0.07,0.11-0.03,0.11-0.16c0-0.26-0.36-0.25-0.4-0.14
			c-0.05,0.12,0.02,0.13,0.04,0.22l-0.13,0.06c-0.27,0.12-0.3,0.14-0.3,0.4c0,0.05,0.01,0.09,0.03,0.12c0.04,0,0.07-0.03,0.1-0.05
			c0.03-0.02,0.07-0.04,0.1-0.06c0,0.1-0.07,0.27-0.11,0.34c-0.11-0.07-0.08-0.04-0.13-0.17c-0.03-0.07-0.06-0.14-0.09-0.21
			c-0.02-0.04-0.08-0.17-0.08-0.22c0-0.06,0.07-0.09,0.07-0.27c0-0.03-0.02-0.04-0.06-0.04c-0.01,0.02-0.08,0.11-0.1,0.12
			c-0.01-0.04-0.04-0.1-0.05-0.14c-0.02-0.05-0.03-0.1-0.05-0.14c-0.1,0.03-0.15,0.24-0.09,0.35c0.02,0.03,0.02,0.04,0.03,0.07
			c-0.05,0-0.13-0.04-0.18-0.05c0-0.04-0.02-0.1-0.02-0.14c-0.02-0.01-0.04-0.01-0.06-0.02c0.01-0.13,0.4-0.36,0.53-0.43
			c0.07-0.04,0.06-0.02,0.12-0.07c0.12-0.1,0.13-0.13,0.13-0.26c-0.08,0.01-0.55,0.34-0.69,0.43C43.29,56.25,43.2,56.32,43.2,56.43
			L43.2,56.43z M44.36,55.99h-0.04v-0.04c0.05,0,0.06-0.03,0.07,0.03C44.38,55.98,44.38,55.99,44.36,55.99z M44.24,55.98
			c0,0.07,0.04,0.08,0.07,0.12c-0.11,0.17-0.18,0.19-0.18,0.37c0,0.05,0.03,0.01,0.05,0c0.02-0.02,0.04-0.04,0.06-0.06
			c0.04-0.04,0.08-0.08,0.11-0.12c0.03-0.05,0.05-0.1,0.08-0.14c0.06-0.09,0.1-0.06,0.12-0.11l-0.08-0.01
			C44.45,55.76,44.24,55.84,44.24,55.98L44.24,55.98z M43.12,56.2c0.06,0.03,0.09,0.01,0.17-0.03c0.06-0.03,0.1-0.06,0.14-0.09
			c0.12-0.09,0.16-0.15,0.19-0.29C43.52,55.79,43.13,56.03,43.12,56.2L43.12,56.2z M43.99,56.2c-0.03-0.01-0.07-0.03-0.11-0.03
			c-0.01,0.04-0.04,0.08-0.05,0.12c-0.03-0.02-0.04-0.03-0.05-0.07c-0.05,0-0.04,0-0.08,0.01c-0.06,0.12,0.06,0.2,0.15,0.2
			c0.07,0,0.09-0.06,0.11-0.11c0.05,0,0.06,0,0.1,0.01c0.02-0.03,0.05-0.04,0.05-0.08c0-0.06-0.01-0.08-0.01-0.14
			c-0.04,0-0.04-0.01-0.1-0.01C43.99,56.14,43.99,56.14,43.99,56.2L43.99,56.2z M43.46,57.89c0,0.06-0.01,0.1,0.06,0.06
			c0.03-0.01,0.04-0.03,0.06-0.05l0.25-0.29c0.04-0.05,0.05-0.07,0.03-0.16C43.78,57.47,43.46,57.76,43.46,57.89L43.46,57.89z
			 M44.47,57.31c0.03,0,0.07-0.01,0.09-0.02c-0.01,0.04-0.08,0.08-0.01,0.2c0.03,0,0.14-0.02,0.16-0.03c0.07-0.03,0.11-0.22,0-0.15
			c-0.03,0.02-0.05,0.04-0.09,0.04c0.02-0.07,0.08-0.12,0.08-0.19c-0.04-0.01-0.13,0-0.17,0.02C44.46,57.21,44.43,57.31,44.47,57.31
			L44.47,57.31z M43.34,57.21c-0.06,0-0.11,0.02-0.17,0.02c-0.01,0.1-0.04,0.15,0.07,0.15c0.09,0,0.11-0.05,0.11-0.14
			c0.09-0.02,0.19-0.01,0.19-0.11c0-0.14-0.14-0.12-0.18-0.05C43.34,57.11,43.35,57.17,43.34,57.21L43.34,57.21z M43.87,57.69
			c0,0.02,0.06,0.12,0.06,0.14c0,0.08-0.13,0.11,0.03,0.19c0.13-0.09,0.13-0.1,0.05-0.28c-0.01-0.02-0.01-0.04-0.03-0.06
			c-0.02-0.04-0.04-0.09-0.07-0.11C43.9,57.59,43.87,57.67,43.87,57.69L43.87,57.69z M42.96,56.3c0,0.06-0.01,0.1-0.01,0.14
			c0.03,0.01,0.07,0.03,0.11,0.03c0.07,0,0.21-0.17,0.02-0.2C43,56.27,43.01,56.29,42.96,56.3L42.96,56.3z M42.69,56.56
			c0.07,0.1,0.26,0.07,0.22-0.09c-0.01-0.04-0.03-0.04-0.13-0.04C42.72,56.43,42.7,56.52,42.69,56.56L42.69,56.56z"/>
		<polygon class="st1" points="48.47,56.73 48.74,56.93 48.47,57.13 		"/>
		<polygon class="st1" points="39.21,56.72 38.94,56.92 39.21,57.12 		"/>
	</g>
</g>
<text transform="matrix(1 0 0 1 68.7596 54.3743)"><tspan x="0" y="0" class="st15 st16">SMP MUHAMMADIYAH</tspan><tspan x="0" y="15.92" class="st15 st16">AL - GHIFARI</tspan></text>
</svg>
